<?xml version="1.0" encoding="UTF-8" standalone="no"?>
<!DOCTYPE svg PUBLIC "-//W3C//DTD SVG 1.1//EN"
 "http://www.w3.org/Graphics/SVG/1.1/DTD/svg11.dtd">
<!-- Generated by graphviz version 12.2.1 (20250203.1708)
 -->
<!-- Pages: 1 -->
<svg width="513pt" height="391pt"
 viewBox="0.00 0.00 512.93 390.75" xmlns="http://www.w3.org/2000/svg" xmlns:xlink="http://www.w3.org/1999/xlink">
<g id="graph0" class="graph" transform="scale(1 1) rotate(0) translate(4 386.75)">
<polygon fill="white" stroke="none" points="-4,4 -4,-386.75 508.93,-386.75 508.93,4 -4,4"/>
<g id="clust1" class="cluster">
<title>clusterbins (1460)</title>
<path fill="none" stroke="black" d="M119.97,-8C119.97,-8 225.97,-8 225.97,-8 231.97,-8 237.97,-14 237.97,-20 237.97,-20 237.97,-362.75 237.97,-362.75 237.97,-368.75 231.97,-374.75 225.97,-374.75 225.97,-374.75 119.97,-374.75 119.97,-374.75 113.97,-374.75 107.97,-368.75 107.97,-362.75 107.97,-362.75 107.97,-20 107.97,-20 107.97,-14 113.97,-8 119.97,-8"/>
<text text-anchor="middle" x="189.47" y="-15.95" font-family="Times,serif" font-size="14.00">bins (1460)</text>
</g>
<!-- mu_a -->
<g id="node1" class="node">
<title>mu_a</title>
<ellipse fill="none" stroke="black" cx="48.97" cy="-204" rx="48.97" ry="42.25"/>
<text text-anchor="middle" x="48.97" y="-216.57" font-family="Times,serif" font-size="14.00">mu_a</text>
<text text-anchor="middle" x="48.97" y="-199.32" font-family="Times,serif" font-size="14.00">~</text>
<text text-anchor="middle" x="48.97" y="-182.07" font-family="Times,serif" font-size="14.00">Normal</text>
</g>
<!-- y_lik -->
<g id="node6" class="node">
<title>y_lik</title>
<ellipse fill="lightgrey" stroke="black" cx="176.97" cy="-83.5" rx="48.97" ry="42.25"/>
<text text-anchor="middle" x="176.97" y="-96.07" font-family="Times,serif" font-size="14.00">y_lik</text>
<text text-anchor="middle" x="176.97" y="-78.82" font-family="Times,serif" font-size="14.00">~</text>
<text text-anchor="middle" x="176.97" y="-61.57" font-family="Times,serif" font-size="14.00">Normal</text>
</g>
<!-- mu_a&#45;&gt;y_lik -->
<g id="edge5" class="edge">
<title>mu_a&#45;&gt;y_lik</title>
<path fill="none" stroke="black" d="M81.93,-172.48C98.35,-157.28 118.38,-138.74 135.8,-122.61"/>
<polygon fill="black" stroke="black" points="138.04,-125.3 143.01,-115.94 133.29,-120.17 138.04,-125.3"/>
</g>
<!-- sigma -->
<g id="node2" class="node">
<title>sigma</title>
<ellipse fill="none" stroke="black" cx="318.97" cy="-204" rx="70.18" ry="42.25"/>
<text text-anchor="middle" x="318.97" y="-216.57" font-family="Times,serif" font-size="14.00">sigma</text>
<text text-anchor="middle" x="318.97" y="-199.32" font-family="Times,serif" font-size="14.00">~</text>
<text text-anchor="middle" x="318.97" y="-182.07" font-family="Times,serif" font-size="14.00">HalfNormal</text>
</g>
<!-- sigma&#45;&gt;y_lik -->
<g id="edge3" class="edge">
<title>sigma&#45;&gt;y_lik</title>
<path fill="none" stroke="black" d="M278.66,-169.36C260.48,-154.19 238.97,-136.24 220.43,-120.77"/>
<polygon fill="black" stroke="black" points="222.68,-118.09 212.76,-114.37 218.19,-123.46 222.68,-118.09"/>
</g>
<!-- mu_b -->
<g id="node3" class="node">
<title>mu_b</title>
<ellipse fill="none" stroke="black" cx="455.97" cy="-204" rx="48.97" ry="42.25"/>
<text text-anchor="middle" x="455.97" y="-216.57" font-family="Times,serif" font-size="14.00">mu_b</text>
<text text-anchor="middle" x="455.97" y="-199.32" font-family="Times,serif" font-size="14.00">~</text>
<text text-anchor="middle" x="455.97" y="-182.07" font-family="Times,serif" font-size="14.00">Normal</text>
</g>
<!-- mu_b&#45;&gt;y_lik -->
<g id="edge4" class="edge">
<title>mu_b&#45;&gt;y_lik</title>
<path fill="none" stroke="black" d="M419.83,-174.96C412.8,-170.19 405.32,-165.55 397.97,-161.75 345.1,-134.41 280.41,-113.08 234.72,-99.82"/>
<polygon fill="black" stroke="black" points="235.85,-96.5 225.27,-97.12 233.93,-103.23 235.85,-96.5"/>
</g>
<!-- z -->
<g id="node4" class="node">
<title>z</title>
<ellipse fill="none" stroke="black" cx="172.97" cy="-204" rx="57.45" ry="42.25"/>
<text text-anchor="middle" x="172.97" y="-216.57" font-family="Times,serif" font-size="14.00">z</text>
<text text-anchor="middle" x="172.97" y="-199.32" font-family="Times,serif" font-size="14.00">~</text>
<text text-anchor="middle" x="172.97" y="-182.07" font-family="Times,serif" font-size="14.00">Bernoulli</text>
</g>
<!-- z&#45;&gt;y_lik -->
<g id="edge2" class="edge">
<title>z&#45;&gt;y_lik</title>
<path fill="none" stroke="black" d="M174.37,-161.55C174.63,-153.75 174.91,-145.49 175.18,-137.4"/>
<polygon fill="black" stroke="black" points="178.67,-137.75 175.51,-127.63 171.68,-137.51 178.67,-137.75"/>
</g>
<!-- p -->
<g id="node5" class="node">
<title>p</title>
<ellipse fill="none" stroke="black" cx="172.97" cy="-324.5" rx="34.65" ry="42.25"/>
<text text-anchor="middle" x="172.97" y="-337.07" font-family="Times,serif" font-size="14.00">p</text>
<text text-anchor="middle" x="172.97" y="-319.82" font-family="Times,serif" font-size="14.00">~</text>
<text text-anchor="middle" x="172.97" y="-302.57" font-family="Times,serif" font-size="14.00">Beta</text>
</g>
<!-- p&#45;&gt;z -->
<g id="edge1" class="edge">
<title>p&#45;&gt;z</title>
<path fill="none" stroke="black" d="M172.97,-282.05C172.97,-274.25 172.97,-265.99 172.97,-257.9"/>
<polygon fill="black" stroke="black" points="176.47,-258.13 172.97,-248.13 169.47,-258.13 176.47,-258.13"/>
</g>
</g>
</svg>
