<?xml version="1.0" encoding="UTF-8" standalone="no"?>
<!DOCTYPE svg PUBLIC "-//W3C//DTD SVG 1.1//EN"
 "http://www.w3.org/Graphics/SVG/1.1/DTD/svg11.dtd">
<!-- Generated by graphviz version 12.2.1 (20250203.1708)
 -->
<!-- Pages: 1 -->
<svg width="364pt" height="283pt"
 viewBox="0.00 0.00 363.65 283.50" xmlns="http://www.w3.org/2000/svg" xmlns:xlink="http://www.w3.org/1999/xlink">
<g id="graph0" class="graph" transform="scale(1 1) rotate(0) translate(4 279.5)">
<polygon fill="white" stroke="none" points="-4,4 -4,-279.5 359.65,-279.5 359.65,4 -4,4"/>
<g id="clust1" class="cluster">
<title>cluster2</title>
<path fill="none" stroke="black" d="M20,-141.75C20,-141.75 264,-141.75 264,-141.75 270,-141.75 276,-147.75 276,-153.75 276,-153.75 276,-255.5 276,-255.5 276,-261.5 270,-267.5 264,-267.5 264,-267.5 20,-267.5 20,-267.5 14,-267.5 8,-261.5 8,-255.5 8,-255.5 8,-153.75 8,-153.75 8,-147.75 14,-141.75 20,-141.75"/>
<text text-anchor="middle" x="263.5" y="-149.7" font-family="Times,serif" font-size="14.00">2</text>
</g>
<g id="clust2" class="cluster">
<title>clusterpos (1438)</title>
<path fill="none" stroke="black" d="M171,-8C171,-8 267,-8 267,-8 273,-8 279,-14 279,-20 279,-20 279,-121.75 279,-121.75 279,-127.75 273,-133.75 267,-133.75 267,-133.75 171,-133.75 171,-133.75 165,-133.75 159,-127.75 159,-121.75 159,-121.75 159,-20 159,-20 159,-14 165,-8 171,-8"/>
<text text-anchor="middle" x="233.12" y="-15.95" font-family="Times,serif" font-size="14.00">pos (1438)</text>
</g>
<!-- sigma -->
<g id="node1" class="node">
<title>sigma</title>
<ellipse fill="none" stroke="black" cx="84" cy="-217.25" rx="68.06" ry="42.25"/>
<text text-anchor="middle" x="84" y="-229.82" font-family="Times,serif" font-size="14.00">sigma</text>
<text text-anchor="middle" x="84" y="-212.57" font-family="Times,serif" font-size="14.00">~</text>
<text text-anchor="middle" x="84" y="-195.32" font-family="Times,serif" font-size="14.00">Halfnormal</text>
</g>
<!-- y_lik -->
<g id="node4" class="node">
<title>y_lik</title>
<ellipse fill="lightgrey" stroke="black" cx="219" cy="-83.5" rx="51.62" ry="42.25"/>
<text text-anchor="middle" x="219" y="-96.07" font-family="Times,serif" font-size="14.00">y_lik</text>
<text text-anchor="middle" x="219" y="-78.82" font-family="Times,serif" font-size="14.00">~</text>
<text text-anchor="middle" x="219" y="-61.57" font-family="Times,serif" font-size="14.00">Mixture</text>
</g>
<!-- sigma&#45;&gt;y_lik -->
<g id="edge1" class="edge">
<title>sigma&#45;&gt;y_lik</title>
<path fill="none" stroke="black" d="M120.18,-180.94C138.06,-163.49 159.71,-142.37 178.18,-124.34"/>
<polygon fill="black" stroke="black" points="180.62,-126.84 185.33,-117.36 175.73,-121.83 180.62,-126.84"/>
</g>
<!-- mu -->
<g id="node2" class="node">
<title>mu</title>
<ellipse fill="none" stroke="black" cx="219" cy="-217.25" rx="48.97" ry="42.25"/>
<text text-anchor="middle" x="219" y="-229.82" font-family="Times,serif" font-size="14.00">mu</text>
<text text-anchor="middle" x="219" y="-212.57" font-family="Times,serif" font-size="14.00">~</text>
<text text-anchor="middle" x="219" y="-195.32" font-family="Times,serif" font-size="14.00">Normal</text>
</g>
<!-- mu&#45;&gt;y_lik -->
<g id="edge2" class="edge">
<title>mu&#45;&gt;y_lik</title>
<path fill="none" stroke="black" d="M219,-174.56C219,-162.67 219,-149.56 219,-137.11"/>
<polygon fill="black" stroke="black" points="222.5,-137.43 219,-127.43 215.5,-137.43 222.5,-137.43"/>
</g>
<!-- w -->
<g id="node3" class="node">
<title>w</title>
<ellipse fill="none" stroke="black" cx="321" cy="-217.25" rx="34.65" ry="42.25"/>
<text text-anchor="middle" x="321" y="-229.82" font-family="Times,serif" font-size="14.00">w</text>
<text text-anchor="middle" x="321" y="-212.57" font-family="Times,serif" font-size="14.00">~</text>
<text text-anchor="middle" x="321" y="-195.32" font-family="Times,serif" font-size="14.00">Beta</text>
</g>
<!-- w&#45;&gt;y_lik -->
<g id="edge3" class="edge">
<title>w&#45;&gt;y_lik</title>
<path fill="none" stroke="black" d="M303.97,-179.96C297.29,-167.33 289.05,-153.41 280,-141.75 274.8,-135.05 268.8,-128.44 262.64,-122.21"/>
<polygon fill="black" stroke="black" points="265.48,-120.09 255.88,-115.61 260.59,-125.1 265.48,-120.09"/>
</g>
</g>
</svg>
