<?xml version="1.0" encoding="utf-8" standalone="no"?>
<!DOCTYPE svg PUBLIC "-//W3C//DTD SVG 1.1//EN"
  "http://www.w3.org/Graphics/SVG/1.1/DTD/svg11.dtd">
<svg xmlns:xlink="http://www.w3.org/1999/xlink" width="600.061483pt" height="210.07625pt" viewBox="0 0 600.061483 210.07625" xmlns="http://www.w3.org/2000/svg" version="1.1">
 <metadata>
  <rdf:RDF xmlns:dc="http://purl.org/dc/elements/1.1/" xmlns:cc="http://creativecommons.org/ns#" xmlns:rdf="http://www.w3.org/1999/02/22-rdf-syntax-ns#">
   <cc:Work>
    <dc:type rdf:resource="http://purl.org/dc/dcmitype/StillImage"/>
    <dc:date>2025-05-16T10:55:21.689168</dc:date>
    <dc:format>image/svg+xml</dc:format>
    <dc:creator>
     <cc:Agent>
      <dc:title>Matplotlib v3.10.3, https://matplotlib.org/</dc:title>
     </cc:Agent>
    </dc:creator>
   </cc:Work>
  </rdf:RDF>
 </metadata>
 <defs>
  <style type="text/css">*{stroke-linejoin: round; stroke-linecap: butt}</style>
 </defs>
 <g id="figure_1">
  <g id="patch_1">
   <path d="M -0 210.07625 
L 600.061483 210.07625 
L 600.061483 0 
L -0 0 
z
" style="fill: #ffffff"/>
  </g>
  <g id="axes_1">
   <g id="patch_2">
    <path d="M 30.103125 173.52 
L 588.103125 173.52 
L 588.103125 7.2 
L 30.103125 7.2 
z
" style="fill: #ffffff"/>
   </g>
   <g id="matplotlib.axis_1">
    <g id="xtick_1">
     <g id="line2d_1">
      <defs>
       <path id="mce8a6a5dfa" d="M 0 0 
L 0 3.5 
" style="stroke: #000000; stroke-width: 0.8"/>
      </defs>
      <g>
       <use xlink:href="#mce8a6a5dfa" x="55.466761" y="173.52" style="stroke: #000000; stroke-width: 0.8"/>
      </g>
     </g>
     <g id="text_1">
      <!-- 0.0 -->
      <g transform="translate(47.515199 188.118438) scale(0.1 -0.1)">
       <defs>
        <path id="DejaVuSans-30" d="M 2034 4250 
Q 1547 4250 1301 3770 
Q 1056 3291 1056 2328 
Q 1056 1369 1301 889 
Q 1547 409 2034 409 
Q 2525 409 2770 889 
Q 3016 1369 3016 2328 
Q 3016 3291 2770 3770 
Q 2525 4250 2034 4250 
z
M 2034 4750 
Q 2819 4750 3233 4129 
Q 3647 3509 3647 2328 
Q 3647 1150 3233 529 
Q 2819 -91 2034 -91 
Q 1250 -91 836 529 
Q 422 1150 422 2328 
Q 422 3509 836 4129 
Q 1250 4750 2034 4750 
z
" transform="scale(0.015625)"/>
        <path id="DejaVuSans-2e" d="M 684 794 
L 1344 794 
L 1344 0 
L 684 0 
L 684 794 
z
" transform="scale(0.015625)"/>
       </defs>
       <use xlink:href="#DejaVuSans-30"/>
       <use xlink:href="#DejaVuSans-2e" transform="translate(63.623047 0)"/>
       <use xlink:href="#DejaVuSans-30" transform="translate(95.410156 0)"/>
      </g>
     </g>
    </g>
    <g id="xtick_2">
     <g id="line2d_2">
      <g>
       <use xlink:href="#mce8a6a5dfa" x="121.647156" y="173.52" style="stroke: #000000; stroke-width: 0.8"/>
      </g>
     </g>
     <g id="text_2">
      <!-- 0.2 -->
      <g transform="translate(113.695594 188.118438) scale(0.1 -0.1)">
       <defs>
        <path id="DejaVuSans-32" d="M 1228 531 
L 3431 531 
L 3431 0 
L 469 0 
L 469 531 
Q 828 903 1448 1529 
Q 2069 2156 2228 2338 
Q 2531 2678 2651 2914 
Q 2772 3150 2772 3378 
Q 2772 3750 2511 3984 
Q 2250 4219 1831 4219 
Q 1534 4219 1204 4116 
Q 875 4013 500 3803 
L 500 4441 
Q 881 4594 1212 4672 
Q 1544 4750 1819 4750 
Q 2544 4750 2975 4387 
Q 3406 4025 3406 3419 
Q 3406 3131 3298 2873 
Q 3191 2616 2906 2266 
Q 2828 2175 2409 1742 
Q 1991 1309 1228 531 
z
" transform="scale(0.015625)"/>
       </defs>
       <use xlink:href="#DejaVuSans-30"/>
       <use xlink:href="#DejaVuSans-2e" transform="translate(63.623047 0)"/>
       <use xlink:href="#DejaVuSans-32" transform="translate(95.410156 0)"/>
      </g>
     </g>
    </g>
    <g id="xtick_3">
     <g id="line2d_3">
      <g>
       <use xlink:href="#mce8a6a5dfa" x="187.827551" y="173.52" style="stroke: #000000; stroke-width: 0.8"/>
      </g>
     </g>
     <g id="text_3">
      <!-- 0.4 -->
      <g transform="translate(179.875989 188.118438) scale(0.1 -0.1)">
       <defs>
        <path id="DejaVuSans-34" d="M 2419 4116 
L 825 1625 
L 2419 1625 
L 2419 4116 
z
M 2253 4666 
L 3047 4666 
L 3047 1625 
L 3713 1625 
L 3713 1100 
L 3047 1100 
L 3047 0 
L 2419 0 
L 2419 1100 
L 313 1100 
L 313 1709 
L 2253 4666 
z
" transform="scale(0.015625)"/>
       </defs>
       <use xlink:href="#DejaVuSans-30"/>
       <use xlink:href="#DejaVuSans-2e" transform="translate(63.623047 0)"/>
       <use xlink:href="#DejaVuSans-34" transform="translate(95.410156 0)"/>
      </g>
     </g>
    </g>
    <g id="xtick_4">
     <g id="line2d_4">
      <g>
       <use xlink:href="#mce8a6a5dfa" x="254.007946" y="173.52" style="stroke: #000000; stroke-width: 0.8"/>
      </g>
     </g>
     <g id="text_4">
      <!-- 0.6 -->
      <g transform="translate(246.056384 188.118438) scale(0.1 -0.1)">
       <defs>
        <path id="DejaVuSans-36" d="M 2113 2584 
Q 1688 2584 1439 2293 
Q 1191 2003 1191 1497 
Q 1191 994 1439 701 
Q 1688 409 2113 409 
Q 2538 409 2786 701 
Q 3034 994 3034 1497 
Q 3034 2003 2786 2293 
Q 2538 2584 2113 2584 
z
M 3366 4563 
L 3366 3988 
Q 3128 4100 2886 4159 
Q 2644 4219 2406 4219 
Q 1781 4219 1451 3797 
Q 1122 3375 1075 2522 
Q 1259 2794 1537 2939 
Q 1816 3084 2150 3084 
Q 2853 3084 3261 2657 
Q 3669 2231 3669 1497 
Q 3669 778 3244 343 
Q 2819 -91 2113 -91 
Q 1303 -91 875 529 
Q 447 1150 447 2328 
Q 447 3434 972 4092 
Q 1497 4750 2381 4750 
Q 2619 4750 2861 4703 
Q 3103 4656 3366 4563 
z
" transform="scale(0.015625)"/>
       </defs>
       <use xlink:href="#DejaVuSans-30"/>
       <use xlink:href="#DejaVuSans-2e" transform="translate(63.623047 0)"/>
       <use xlink:href="#DejaVuSans-36" transform="translate(95.410156 0)"/>
      </g>
     </g>
    </g>
    <g id="xtick_5">
     <g id="line2d_5">
      <g>
       <use xlink:href="#mce8a6a5dfa" x="320.188341" y="173.52" style="stroke: #000000; stroke-width: 0.8"/>
      </g>
     </g>
     <g id="text_5">
      <!-- 0.8 -->
      <g transform="translate(312.236779 188.118438) scale(0.1 -0.1)">
       <defs>
        <path id="DejaVuSans-38" d="M 2034 2216 
Q 1584 2216 1326 1975 
Q 1069 1734 1069 1313 
Q 1069 891 1326 650 
Q 1584 409 2034 409 
Q 2484 409 2743 651 
Q 3003 894 3003 1313 
Q 3003 1734 2745 1975 
Q 2488 2216 2034 2216 
z
M 1403 2484 
Q 997 2584 770 2862 
Q 544 3141 544 3541 
Q 544 4100 942 4425 
Q 1341 4750 2034 4750 
Q 2731 4750 3128 4425 
Q 3525 4100 3525 3541 
Q 3525 3141 3298 2862 
Q 3072 2584 2669 2484 
Q 3125 2378 3379 2068 
Q 3634 1759 3634 1313 
Q 3634 634 3220 271 
Q 2806 -91 2034 -91 
Q 1263 -91 848 271 
Q 434 634 434 1313 
Q 434 1759 690 2068 
Q 947 2378 1403 2484 
z
M 1172 3481 
Q 1172 3119 1398 2916 
Q 1625 2713 2034 2713 
Q 2441 2713 2670 2916 
Q 2900 3119 2900 3481 
Q 2900 3844 2670 4047 
Q 2441 4250 2034 4250 
Q 1625 4250 1398 4047 
Q 1172 3844 1172 3481 
z
" transform="scale(0.015625)"/>
       </defs>
       <use xlink:href="#DejaVuSans-30"/>
       <use xlink:href="#DejaVuSans-2e" transform="translate(63.623047 0)"/>
       <use xlink:href="#DejaVuSans-38" transform="translate(95.410156 0)"/>
      </g>
     </g>
    </g>
    <g id="xtick_6">
     <g id="line2d_6">
      <g>
       <use xlink:href="#mce8a6a5dfa" x="386.368736" y="173.52" style="stroke: #000000; stroke-width: 0.8"/>
      </g>
     </g>
     <g id="text_6">
      <!-- 1.0 -->
      <g transform="translate(378.417174 188.118438) scale(0.1 -0.1)">
       <defs>
        <path id="DejaVuSans-31" d="M 794 531 
L 1825 531 
L 1825 4091 
L 703 3866 
L 703 4441 
L 1819 4666 
L 2450 4666 
L 2450 531 
L 3481 531 
L 3481 0 
L 794 0 
L 794 531 
z
" transform="scale(0.015625)"/>
       </defs>
       <use xlink:href="#DejaVuSans-31"/>
       <use xlink:href="#DejaVuSans-2e" transform="translate(63.623047 0)"/>
       <use xlink:href="#DejaVuSans-30" transform="translate(95.410156 0)"/>
      </g>
     </g>
    </g>
    <g id="xtick_7">
     <g id="line2d_7">
      <g>
       <use xlink:href="#mce8a6a5dfa" x="452.549131" y="173.52" style="stroke: #000000; stroke-width: 0.8"/>
      </g>
     </g>
     <g id="text_7">
      <!-- 1.2 -->
      <g transform="translate(444.597569 188.118438) scale(0.1 -0.1)">
       <use xlink:href="#DejaVuSans-31"/>
       <use xlink:href="#DejaVuSans-2e" transform="translate(63.623047 0)"/>
       <use xlink:href="#DejaVuSans-32" transform="translate(95.410156 0)"/>
      </g>
     </g>
    </g>
    <g id="xtick_8">
     <g id="line2d_8">
      <g>
       <use xlink:href="#mce8a6a5dfa" x="518.729526" y="173.52" style="stroke: #000000; stroke-width: 0.8"/>
      </g>
     </g>
     <g id="text_8">
      <!-- 1.4 -->
      <g transform="translate(510.777963 188.118438) scale(0.1 -0.1)">
       <use xlink:href="#DejaVuSans-31"/>
       <use xlink:href="#DejaVuSans-2e" transform="translate(63.623047 0)"/>
       <use xlink:href="#DejaVuSans-34" transform="translate(95.410156 0)"/>
      </g>
     </g>
    </g>
    <g id="xtick_9">
     <g id="line2d_9">
      <g>
       <use xlink:href="#mce8a6a5dfa" x="584.909921" y="173.52" style="stroke: #000000; stroke-width: 0.8"/>
      </g>
     </g>
     <g id="text_9">
      <!-- 1.6 -->
      <g transform="translate(576.958358 188.118438) scale(0.1 -0.1)">
       <use xlink:href="#DejaVuSans-31"/>
       <use xlink:href="#DejaVuSans-2e" transform="translate(63.623047 0)"/>
       <use xlink:href="#DejaVuSans-36" transform="translate(95.410156 0)"/>
      </g>
     </g>
    </g>
    <g id="text_10">
     <!-- 1e8 -->
     <g transform="translate(569.225 200.796563) scale(0.1 -0.1)">
      <defs>
       <path id="DejaVuSans-65" d="M 3597 1894 
L 3597 1613 
L 953 1613 
Q 991 1019 1311 708 
Q 1631 397 2203 397 
Q 2534 397 2845 478 
Q 3156 559 3463 722 
L 3463 178 
Q 3153 47 2828 -22 
Q 2503 -91 2169 -91 
Q 1331 -91 842 396 
Q 353 884 353 1716 
Q 353 2575 817 3079 
Q 1281 3584 2069 3584 
Q 2775 3584 3186 3129 
Q 3597 2675 3597 1894 
z
M 3022 2063 
Q 3016 2534 2758 2815 
Q 2500 3097 2075 3097 
Q 1594 3097 1305 2825 
Q 1016 2553 972 2059 
L 3022 2063 
z
" transform="scale(0.015625)"/>
      </defs>
      <use xlink:href="#DejaVuSans-31"/>
      <use xlink:href="#DejaVuSans-65" transform="translate(63.623047 0)"/>
      <use xlink:href="#DejaVuSans-38" transform="translate(125.146484 0)"/>
     </g>
    </g>
   </g>
   <g id="matplotlib.axis_2">
    <g id="ytick_1">
     <g id="line2d_10">
      <defs>
       <path id="mde121e7f3d" d="M 0 0 
L -3.5 0 
" style="stroke: #000000; stroke-width: 0.8"/>
      </defs>
      <g>
       <use xlink:href="#mde121e7f3d" x="30.103125" y="166.414965" style="stroke: #000000; stroke-width: 0.8"/>
      </g>
     </g>
     <g id="text_11">
      <!-- 0.0 -->
      <g transform="translate(7.2 170.214184) scale(0.1 -0.1)">
       <use xlink:href="#DejaVuSans-30"/>
       <use xlink:href="#DejaVuSans-2e" transform="translate(63.623047 0)"/>
       <use xlink:href="#DejaVuSans-30" transform="translate(95.410156 0)"/>
      </g>
     </g>
    </g>
    <g id="ytick_2">
     <g id="line2d_11">
      <g>
       <use xlink:href="#mde121e7f3d" x="30.103125" y="136.083972" style="stroke: #000000; stroke-width: 0.8"/>
      </g>
     </g>
     <g id="text_12">
      <!-- 0.2 -->
      <g transform="translate(7.2 139.883191) scale(0.1 -0.1)">
       <use xlink:href="#DejaVuSans-30"/>
       <use xlink:href="#DejaVuSans-2e" transform="translate(63.623047 0)"/>
       <use xlink:href="#DejaVuSans-32" transform="translate(95.410156 0)"/>
      </g>
     </g>
    </g>
    <g id="ytick_3">
     <g id="line2d_12">
      <g>
       <use xlink:href="#mde121e7f3d" x="30.103125" y="105.752979" style="stroke: #000000; stroke-width: 0.8"/>
      </g>
     </g>
     <g id="text_13">
      <!-- 0.4 -->
      <g transform="translate(7.2 109.552198) scale(0.1 -0.1)">
       <use xlink:href="#DejaVuSans-30"/>
       <use xlink:href="#DejaVuSans-2e" transform="translate(63.623047 0)"/>
       <use xlink:href="#DejaVuSans-34" transform="translate(95.410156 0)"/>
      </g>
     </g>
    </g>
    <g id="ytick_4">
     <g id="line2d_13">
      <g>
       <use xlink:href="#mde121e7f3d" x="30.103125" y="75.421986" style="stroke: #000000; stroke-width: 0.8"/>
      </g>
     </g>
     <g id="text_14">
      <!-- 0.6 -->
      <g transform="translate(7.2 79.221205) scale(0.1 -0.1)">
       <use xlink:href="#DejaVuSans-30"/>
       <use xlink:href="#DejaVuSans-2e" transform="translate(63.623047 0)"/>
       <use xlink:href="#DejaVuSans-36" transform="translate(95.410156 0)"/>
      </g>
     </g>
    </g>
    <g id="ytick_5">
     <g id="line2d_14">
      <g>
       <use xlink:href="#mde121e7f3d" x="30.103125" y="45.090993" style="stroke: #000000; stroke-width: 0.8"/>
      </g>
     </g>
     <g id="text_15">
      <!-- 0.8 -->
      <g transform="translate(7.2 48.890212) scale(0.1 -0.1)">
       <use xlink:href="#DejaVuSans-30"/>
       <use xlink:href="#DejaVuSans-2e" transform="translate(63.623047 0)"/>
       <use xlink:href="#DejaVuSans-38" transform="translate(95.410156 0)"/>
      </g>
     </g>
    </g>
    <g id="ytick_6">
     <g id="line2d_15">
      <g>
       <use xlink:href="#mde121e7f3d" x="30.103125" y="14.76" style="stroke: #000000; stroke-width: 0.8"/>
      </g>
     </g>
     <g id="text_16">
      <!-- 1.0 -->
      <g transform="translate(7.2 18.559219) scale(0.1 -0.1)">
       <use xlink:href="#DejaVuSans-31"/>
       <use xlink:href="#DejaVuSans-2e" transform="translate(63.623047 0)"/>
       <use xlink:href="#DejaVuSans-30" transform="translate(95.410156 0)"/>
      </g>
     </g>
    </g>
   </g>
   <g id="line2d_16">
    <path d="M 55.466761 114.094002 
L 55.797663 125.543952 
L 56.128565 132.595908 
L 56.459467 127.932518 
L 56.790369 125.506038 
L 57.121271 156.140341 
L 57.452173 125.809348 
L 57.783075 34.513059 
L 58.113977 17.110652 
L 58.444879 20.93994 
L 59.106683 14.797914 
L 59.437585 135.818576 
L 59.768487 15.177051 
L 60.099389 19.044253 
L 60.430291 82.360201 
L 60.761193 81.63984 
L 61.092095 23.593902 
L 61.422997 16.541946 
L 61.753899 17.300221 
L 62.084801 15.36662 
L 62.415703 15.139137 
L 62.746605 16.314463 
L 63.077507 132.406339 
L 63.408409 26.968225 
L 63.739311 63.062106 
L 64.070213 14.797914 
L 65.062919 14.76 
L 65.724723 14.76 
L 66.055625 44.636028 
L 66.386527 115.117673 
L 66.717429 158.036028 
L 67.04833 14.873741 
L 67.710134 14.76 
L 68.70284 14.835827 
L 69.033742 36.977452 
L 69.364644 50.550572 
L 69.695546 75.952778 
L 70.026448 133.809147 
L 70.35735 44.256891 
L 70.688252 64.161605 
L 71.019154 16.466118 
L 71.350056 14.76 
L 72.01186 14.911655 
L 72.342762 14.76 
L 73.004566 14.911655 
L 73.335468 15.97324 
L 73.66637 14.911655 
L 74.659076 14.76 
L 75.982684 14.76 
L 76.97539 15.97324 
L 77.306292 107.231615 
L 77.637194 28.371033 
L 77.968096 102.909448 
L 78.298998 25.224193 
L 78.6299 15.328706 
L 78.960802 14.797914 
L 79.291704 14.911655 
L 79.622606 15.290792 
L 79.953507 22.949368 
L 80.284409 15.139137 
L 80.615311 14.76 
L 81.277115 14.797914 
L 82.269821 14.76 
L 82.600723 15.101224 
L 82.931625 100.824193 
L 83.262527 56.123892 
L 83.593429 102.378656 
L 83.924331 87.440642 
L 84.255233 21.698215 
L 84.586135 15.139137 
L 84.917037 15.101224 
L 85.247939 14.76 
L 85.578841 14.987482 
L 85.909743 14.911655 
L 86.240645 16.88317 
L 86.571547 17.565617 
L 86.902449 15.328706 
L 87.233351 14.76 
L 87.564253 15.859498 
L 87.895155 45.735527 
L 88.226057 18.740943 
L 88.556959 127.667121 
L 88.887861 55.631013 
L 89.218763 90.094604 
L 89.549665 28.788084 
L 89.880567 14.873741 
L 90.211469 14.76 
L 90.542371 14.797914 
L 91.204175 25.262106 
L 91.535077 63.40333 
L 91.865979 18.437633 
L 92.196881 20.864112 
L 92.527783 14.873741 
L 92.858685 16.390291 
L 93.189586 14.76 
L 93.85139 14.76 
L 94.182292 15.06331 
L 94.513194 14.911655 
L 94.844096 15.252879 
L 95.5059 14.835827 
L 95.836802 14.797914 
L 96.167704 16.238636 
L 96.498606 101.127503 
L 96.829508 133.202528 
L 97.16041 45.053079 
L 97.822214 148.292197 
L 98.484018 60.901023 
L 99.145822 41.906239 
L 99.476724 19.233821 
L 99.807626 15.745757 
L 100.138528 18.172237 
L 100.46943 56.275547 
L 100.800332 15.06331 
L 101.131234 14.797914 
L 101.793038 14.797914 
L 102.454842 14.987482 
L 102.785744 16.238636 
L 103.116646 15.101224 
L 103.447548 15.480361 
L 103.77845 14.873741 
L 104.109352 14.76 
L 104.440254 14.987482 
L 104.771156 125.998917 
L 105.102058 52.635827 
L 105.43296 61.28016 
L 105.763862 92.938134 
L 106.094763 23.518074 
L 106.425665 23.025196 
L 106.756567 14.987482 
L 107.087469 45.47013 
L 107.418371 27.044052 
L 107.749273 17.338134 
L 108.080175 14.987482 
L 108.411077 14.76 
L 108.741979 15.821585 
L 109.072881 14.949569 
L 109.403783 20.257492 
L 109.734685 19.157994 
L 110.065587 14.76 
L 110.396489 15.177051 
L 110.727391 15.139137 
L 111.058293 64.844052 
L 111.389195 36.598315 
L 111.720097 22.342748 
L 112.050999 33.337733 
L 112.381901 142.339739 
L 112.712803 119.705236 
L 113.374607 61.810953 
L 113.705509 15.518275 
L 114.036411 15.025396 
L 114.367313 14.835827 
L 114.698215 16.011153 
L 115.029117 21.129509 
L 115.360019 19.688786 
L 115.690921 15.06331 
L 116.021823 14.949569 
L 116.352725 75.876951 
L 116.683627 76.559398 
L 117.014529 50.512658 
L 117.345431 15.442447 
L 117.676333 14.911655 
L 118.007235 14.797914 
L 118.338137 20.219579 
L 118.669039 62.038435 
L 118.999941 154.168826 
L 119.330842 48.654885 
L 119.661744 79.023791 
L 119.992646 86.947763 
L 120.323548 16.769428 
L 120.65445 14.76 
L 120.985352 15.06331 
L 121.316254 14.76 
L 121.647156 14.835827 
L 121.978058 24.276349 
L 122.30896 41.41336 
L 122.639862 23.935125 
L 122.970764 15.101224 
L 123.96347 14.76 
L 124.294372 14.911655 
L 124.625274 14.797914 
L 124.956176 14.835827 
L 125.287078 15.404534 
L 125.948882 30.797513 
L 126.279784 155.837031 
L 126.610686 116.330913 
L 126.941588 17.793099 
L 127.27249 14.911655 
L 127.603392 108.786078 
L 127.934294 39.479759 
L 128.265196 18.096409 
L 128.596098 14.873741 
L 128.927 14.911655 
L 129.257902 16.996911 
L 129.588804 16.314463 
L 129.919706 15.328706 
L 130.250608 14.797914 
L 130.58151 14.797914 
L 130.912412 14.911655 
L 131.574216 14.911655 
L 131.905118 16.200722 
L 132.23602 15.328706 
L 132.566921 48.768626 
L 132.897823 44.863511 
L 133.228725 15.025396 
L 133.559627 14.76 
L 134.221431 14.76 
L 134.883235 14.76 
L 135.214137 26.096209 
L 135.545039 17.868927 
L 135.875941 23.518074 
L 136.206843 69.242046 
L 136.537745 96.502026 
L 137.199549 15.06331 
L 137.861353 16.541946 
L 138.192255 15.06331 
L 138.523157 14.949569 
L 138.854059 14.987482 
L 139.184961 14.76 
L 140.839471 14.76 
L 141.170373 14.873741 
L 141.501275 15.252879 
L 141.832177 14.797914 
L 142.163079 14.911655 
L 142.493981 14.835827 
L 142.824883 14.987482 
L 143.155785 14.835827 
L 143.486687 14.987482 
L 144.148491 14.873741 
L 144.479393 15.06331 
L 144.810295 15.897412 
L 145.141197 20.826199 
L 145.472098 14.911655 
L 145.803 14.873741 
L 146.133902 17.072738 
L 146.464804 14.797914 
L 146.795706 14.835827 
L 147.126608 14.987482 
L 147.45751 14.873741 
L 148.450216 15.025396 
L 148.781118 14.76 
L 149.11202 14.911655 
L 149.442922 16.049067 
L 149.773824 15.214965 
L 150.104726 15.252879 
L 150.435628 14.76 
L 151.097432 15.252879 
L 151.428334 14.949569 
L 151.759236 14.797914 
L 152.42104 14.797914 
L 153.744648 14.76 
L 154.406452 15.518275 
L 154.737354 145.259097 
L 155.068256 37.887382 
L 155.399158 137.48678 
L 155.73006 151.856088 
L 156.060962 75.270331 
L 156.391864 27.233621 
L 156.722766 129.032016 
L 157.053668 119.13653 
L 157.38457 143.287583 
L 157.715472 16.27655 
L 158.046374 19.082166 
L 158.377276 24.655486 
L 158.708177 38.039037 
L 159.039079 16.200722 
L 159.369981 14.911655 
L 159.700883 14.911655 
L 160.362687 15.177051 
L 160.693589 23.555988 
L 161.024491 15.139137 
L 161.355393 15.025396 
L 161.686295 15.594102 
L 162.017197 14.797914 
L 162.348099 14.76 
L 163.340805 15.66993 
L 163.671707 17.148566 
L 164.002609 27.044052 
L 164.333511 18.361805 
L 164.664413 27.953982 
L 164.995315 15.36662 
L 165.326217 15.442447 
L 165.657119 15.36662 
L 165.988021 14.835827 
L 166.318923 14.797914 
L 166.649825 14.987482 
L 166.980727 14.76 
L 167.642531 14.911655 
L 167.973433 14.76 
L 168.304335 14.949569 
L 168.966139 14.797914 
L 169.627943 14.76 
L 169.958845 14.949569 
L 170.289747 14.76 
L 170.620649 14.76 
L 170.951551 15.214965 
L 172.275158 14.873741 
L 172.60606 15.139137 
L 172.936962 14.873741 
L 173.267864 15.025396 
L 173.598766 14.835827 
L 174.26057 15.101224 
L 174.591472 15.404534 
L 175.253276 14.987482 
L 175.584178 14.797914 
L 176.576884 14.797914 
L 176.907786 14.911655 
L 177.238688 14.76 
L 177.56959 14.76 
L 177.900492 119.856891 
L 178.231394 15.06331 
L 178.562296 15.101224 
L 178.893198 19.878355 
L 179.2241 17.679358 
L 179.555002 45.015165 
L 179.885904 57.412959 
L 180.547708 26.020381 
L 180.87861 17.148566 
L 181.209512 18.134323 
L 181.540414 63.251675 
L 181.871316 16.200722 
L 182.202218 25.451675 
L 182.53312 130.207342 
L 182.864022 17.186479 
L 183.194924 14.835827 
L 183.525826 15.404534 
L 183.856728 28.560602 
L 184.18763 20.902026 
L 184.518532 17.793099 
L 184.849433 20.560802 
L 185.180335 25.679157 
L 185.511237 16.807342 
L 185.842139 17.527703 
L 186.173041 15.745757 
L 186.503943 16.88317 
L 186.834845 15.66993 
L 187.165747 15.36662 
L 187.496649 14.873741 
L 187.827551 15.06331 
L 188.158453 21.622387 
L 188.820257 14.873741 
L 189.151159 14.76 
L 189.482061 14.797914 
L 189.812963 15.252879 
L 190.143865 26.551174 
L 190.474767 15.36662 
L 190.805669 14.835827 
L 191.136571 14.76 
L 191.798375 15.025396 
L 192.129277 27.309448 
L 192.460179 123.49661 
L 192.791081 47.024594 
L 193.121983 39.593501 
L 193.452885 19.612959 
L 193.783787 17.906841 
L 194.114689 18.665115 
L 194.445591 19.12008 
L 194.776493 18.892598 
L 195.107395 16.049067 
L 195.438297 15.252879 
L 195.769199 15.594102 
L 196.100101 15.101224 
L 196.431003 15.252879 
L 196.761905 15.252879 
L 197.092807 14.911655 
L 197.423709 14.911655 
L 198.085512 15.139137 
L 198.416414 15.707844 
L 198.747316 14.987482 
L 199.078218 50.853882 
L 199.40912 104.994704 
L 199.740022 88.805537 
L 200.070924 20.522889 
L 200.401826 126.34014 
L 200.732728 21.622387 
L 201.06363 59.460301 
L 201.394532 163.83683 
L 201.725434 81.071133 
L 202.056336 41.375446 
L 202.387238 106.890391 
L 202.71814 144.614564 
L 203.049042 71.554784 
L 203.710846 28.939739 
L 204.041748 30.494203 
L 204.37265 109.165216 
L 204.703552 23.366419 
L 205.365356 15.139137 
L 205.696258 16.200722 
L 206.02716 30.57003 
L 206.358062 121.525095 
L 206.688964 111.364213 
L 207.019866 19.233821 
L 207.350768 14.873741 
L 207.68167 14.76 
L 208.012572 14.949569 
L 208.343474 15.290792 
L 208.674376 20.864112 
L 209.005278 64.654483 
L 209.33618 18.854684 
L 209.667082 14.911655 
L 209.997984 15.252879 
L 210.659788 14.911655 
L 210.990689 14.76 
L 211.652493 14.797914 
L 211.983395 14.873741 
L 212.314297 14.76 
L 212.645199 14.873741 
L 212.976101 15.36662 
L 213.307003 16.314463 
L 213.968807 30.759599 
L 214.299709 16.88317 
L 214.630611 25.262106 
L 214.961513 41.299619 
L 215.292415 80.047462 
L 215.623317 15.632016 
L 215.954219 14.76 
L 218.270533 14.797914 
L 218.601435 116.217172 
L 218.932337 17.717272 
L 219.263239 18.248064 
L 219.594141 16.011153 
L 219.925043 25.034624 
L 220.255945 105.298014 
L 220.917749 36.522487 
L 221.248651 35.119679 
L 221.579553 44.825597 
L 221.910455 15.214965 
L 222.241357 15.214965 
L 222.572259 19.347563 
L 222.903161 27.461103 
L 223.234063 50.057693 
L 223.564965 108.748164 
L 224.226768 38.873139 
L 224.55767 89.184674 
L 224.888572 41.868325 
L 225.219474 40.844654 
L 225.550376 125.543952 
L 225.881278 124.785677 
L 226.21218 15.518275 
L 226.543082 16.124895 
L 226.873984 21.281163 
L 227.204886 129.941946 
L 227.535788 126.415968 
L 227.86669 21.129509 
L 228.197592 59.232818 
L 228.528494 15.594102 
L 228.859396 15.935326 
L 229.190298 124.70985 
L 229.5212 19.878355 
L 229.852102 14.76 
L 230.513906 14.76 
L 230.844808 14.949569 
L 231.837514 14.797914 
L 232.168416 14.987482 
L 232.499318 15.442447 
L 232.83022 14.873741 
L 233.492024 14.76 
L 234.153828 14.797914 
L 234.48473 14.76 
L 234.815632 14.911655 
L 235.146534 14.911655 
L 235.477436 24.010953 
L 235.808338 19.992096 
L 236.13924 42.095807 
L 236.470142 23.935125 
L 236.801044 75.649468 
L 237.131945 30.797513 
L 237.793749 112.729107 
L 238.124651 18.892598 
L 238.455553 124.40654 
L 238.786455 69.810752 
L 239.117357 58.853681 
L 239.448259 53.356189 
L 239.779161 62.948365 
L 240.440965 129.790291 
L 240.771867 24.124694 
L 241.102769 54.948566 
L 241.433671 23.78347 
L 241.764573 21.167422 
L 242.095475 155.154584 
L 242.426377 85.810351 
L 242.757279 123.686179 
L 243.088181 16.314463 
L 243.419083 116.330913 
L 243.749985 15.594102 
L 244.080887 17.224393 
L 244.411789 15.025396 
L 244.742691 134.03663 
L 245.073593 21.470732 
L 245.404495 15.328706 
L 245.735397 18.134323 
L 246.066299 14.76 
L 246.397201 121.904233 
L 246.728103 118.984875 
L 247.059005 118.264514 
L 247.389907 141.353982 
L 247.720809 121.600923 
L 248.051711 126.719278 
L 248.382613 125.088987 
L 248.713515 121.904233 
L 249.044417 113.56321 
L 249.375319 123.458696 
L 249.706221 126.415968 
L 250.037123 119.174443 
L 250.368024 136.842247 
L 250.698926 131.496409 
L 251.029828 133.278355 
L 251.36073 123.837834 
L 252.022534 135.591093 
L 252.353436 122.017974 
L 252.684338 134.03663 
L 253.01524 125.126901 
L 253.346142 128.501224 
L 253.677044 124.634022 
L 254.007946 15.745757 
L 254.66975 30.456289 
L 255.000652 52.484173 
L 255.331554 17.982668 
L 255.662456 18.930512 
L 255.993358 70.076148 
L 256.32426 22.229007 
L 256.655162 15.328706 
L 256.986064 133.505838 
L 257.316966 119.705236 
L 257.647868 34.247663 
L 257.97877 28.219378 
L 258.309672 15.935326 
L 258.640574 126.529709 
L 258.971476 14.835827 
L 259.302378 15.025396 
L 259.63328 14.76 
L 260.625986 14.835827 
L 260.956888 122.927904 
L 261.28779 56.427202 
L 261.618692 29.432618 
L 261.949594 47.5933 
L 262.280496 52.901224 
L 262.611398 28.977653 
L 262.9423 23.707643 
L 263.273201 16.57986 
L 263.604103 16.996911 
L 263.935005 15.783671 
L 264.265907 22.835627 
L 264.596809 14.797914 
L 265.258613 15.252879 
L 265.589515 15.06331 
L 265.920417 34.020181 
L 266.251319 45.77344 
L 266.582221 24.162608 
L 266.913123 82.890993 
L 267.244025 97.904835 
L 267.574927 134.719077 
L 267.905829 60.559799 
L 268.236731 52.370431 
L 268.567633 135.477352 
L 268.898535 16.617773 
L 269.229437 23.025196 
L 269.560339 55.896409 
L 269.891241 138.320883 
L 270.222143 36.712056 
L 270.553045 97.904835 
L 270.883947 22.646058 
L 271.214849 48.844453 
L 271.545751 112.95659 
L 271.876653 37.167021 
L 272.207555 28.863912 
L 272.538457 163.761003 
L 272.869359 29.318877 
L 273.200261 15.290792 
L 273.531163 17.262307 
L 273.862065 15.518275 
L 274.192967 14.76 
L 274.523869 14.76 
L 274.854771 25.375848 
L 275.185673 50.588485 
L 275.516575 112.95659 
L 275.847477 31.897011 
L 276.178379 15.707844 
L 276.50928 16.200722 
L 276.840182 23.973039 
L 277.171084 121.828405 
L 277.501986 17.072738 
L 277.832888 19.157994 
L 278.16379 15.518275 
L 278.494692 14.76 
L 278.825594 15.101224 
L 279.156496 23.366419 
L 279.487398 27.157793 
L 279.8183 22.911454 
L 280.149202 16.88317 
L 280.480104 14.835827 
L 281.141908 14.76 
L 282.134614 14.835827 
L 282.465516 17.793099 
L 282.796418 130.813962 
L 283.12732 15.821585 
L 283.458222 52.067121 
L 283.789124 129.638636 
L 284.120026 163.761003 
L 284.450928 31.669529 
L 284.78183 14.911655 
L 285.112732 24.769228 
L 285.443634 39.290191 
L 285.774536 33.603129 
L 286.105438 39.138536 
L 286.43634 122.58668 
L 286.767242 133.543751 
L 287.098144 122.548766 
L 287.429046 138.548365 
L 287.759948 14.797914 
L 288.421752 14.76 
L 288.752654 14.797914 
L 289.083556 15.06331 
L 289.414458 14.835827 
L 289.745359 14.76 
L 290.076261 15.290792 
L 290.407163 91.649067 
L 290.738065 29.470532 
L 291.068967 117.695807 
L 291.399869 18.627202 
L 291.730771 145.78989 
L 292.061673 142.75679 
L 292.392575 28.522688 
L 293.385281 77.69681 
L 293.716183 26.664915 
L 294.047085 94.227202 
L 294.377987 133.922889 
L 294.708889 49.071936 
L 295.039791 79.706239 
L 295.370693 75.15659 
L 295.701595 60.218576 
L 296.032497 108.823992 
L 296.363399 30.607944 
L 296.694301 95.250873 
L 297.025203 96.805336 
L 297.356105 44.787683 
L 297.687007 16.314463 
L 298.017909 17.262307 
L 298.348811 14.911655 
L 298.679713 120.198114 
L 299.010615 14.949569 
L 299.341517 14.835827 
L 299.672419 14.911655 
L 300.003321 15.177051 
L 300.334223 17.679358 
L 300.665125 64.768225 
L 300.996027 95.175045 
L 301.326929 19.082166 
L 301.657831 15.821585 
L 301.988733 14.987482 
L 302.319635 24.579659 
L 302.650536 28.295206 
L 302.981438 22.001525 
L 303.31234 51.233019 
L 303.643242 16.88317 
L 303.974144 23.290592 
L 304.305046 23.707643 
L 304.635948 18.134323 
L 304.96685 19.044253 
L 305.297752 17.717272 
L 305.628654 15.859498 
L 305.959556 16.617773 
L 306.290458 124.10323 
L 306.62136 30.721685 
L 306.952262 27.309448 
L 307.283164 19.499218 
L 307.614066 21.24325 
L 308.27587 15.66993 
L 308.606772 14.987482 
L 308.937674 15.101224 
L 309.599478 14.911655 
L 309.93038 17.148566 
L 310.592184 134.226199 
L 310.923086 57.867924 
L 311.253988 91.686981 
L 311.58489 16.921083 
L 311.915792 17.338134 
L 312.246694 105.373842 
L 312.577596 153.410552 
L 312.908498 162.396108 
L 313.2394 155.685376 
L 313.570302 114.131916 
L 313.901204 19.271735 
L 314.232106 14.949569 
L 314.563008 15.177051 
L 314.89391 15.556189 
L 315.224812 15.328706 
L 315.555714 16.352377 
L 315.886615 16.352377 
L 316.217517 18.399719 
L 316.548419 15.480361 
L 316.879321 131.799719 
L 317.210223 17.110652 
L 317.541125 15.97324 
L 317.872027 15.935326 
L 318.202929 19.309649 
L 318.533831 18.096409 
L 319.195635 17.300221 
L 319.526537 15.252879 
L 319.857439 15.556189 
L 320.188341 14.835827 
L 320.850145 15.556189 
L 321.181047 15.139137 
L 321.511949 15.101224 
L 321.842851 15.518275 
L 322.173753 15.252879 
L 322.504655 16.845256 
L 322.835557 15.328706 
L 323.166459 40.730913 
L 323.497361 20.181665 
L 323.828263 25.186279 
L 324.159165 52.901224 
L 324.490067 94.682166 
L 324.820969 18.892598 
L 325.151871 19.764614 
L 325.482773 18.968425 
L 325.813675 22.759799 
L 326.144577 48.124092 
L 326.475479 44.711856 
L 326.806381 15.859498 
L 327.468185 14.797914 
L 327.799087 14.911655 
L 328.129989 14.76 
L 328.460891 14.873741 
L 328.791792 17.034824 
L 329.122694 158.87013 
L 329.453596 160.235025 
L 329.784498 49.413159 
L 330.1154 17.755186 
L 330.446302 16.921083 
L 330.777204 15.404534 
L 331.108106 14.949569 
L 331.439008 15.290792 
L 331.76991 15.404534 
L 332.100812 20.181665 
L 332.431714 46.152578 
L 332.762616 124.482367 
L 333.093518 133.771234 
L 333.42442 15.404534 
L 333.755322 16.541946 
L 334.417126 15.518275 
L 334.748028 16.27655 
L 335.07893 15.745757 
L 335.409832 14.797914 
L 335.740734 14.835827 
L 336.071636 14.76 
L 336.402538 14.911655 
L 338.057048 14.797914 
L 338.38795 14.835827 
L 338.718852 15.06331 
L 339.049754 14.949569 
L 339.711558 15.594102 
L 340.04246 16.807342 
L 340.373362 15.025396 
L 341.035166 14.76 
L 342.027871 15.025396 
L 342.358773 14.797914 
L 342.689675 14.76 
L 343.020577 14.949569 
L 343.682381 14.797914 
L 345.005989 14.797914 
L 345.667793 14.911655 
L 346.329597 14.797914 
L 346.660499 15.025396 
L 346.991401 14.835827 
L 347.322303 15.06331 
L 347.653205 14.797914 
L 347.984107 15.214965 
L 348.315009 14.797914 
L 348.645911 14.835827 
L 348.976813 14.76 
L 349.307715 15.177051 
L 349.638617 15.859498 
L 349.969519 17.755186 
L 350.300421 16.086981 
L 350.631323 18.172237 
L 350.962225 15.632016 
L 351.293127 14.949569 
L 351.624029 15.025396 
L 351.954931 14.797914 
L 353.278539 15.06331 
L 353.609441 14.873741 
L 354.933049 14.76 
L 356.256656 14.835827 
L 356.587558 14.835827 
L 356.91846 15.139137 
L 357.249362 70.948164 
L 357.580264 29.698014 
L 357.911166 15.06331 
L 358.242068 15.935326 
L 358.57297 150.832417 
L 358.903872 131.875547 
L 359.234774 14.76 
L 360.22748 14.949569 
L 360.558382 15.745757 
L 360.889284 15.290792 
L 361.220186 16.731515 
L 361.551088 23.442247 
L 361.88199 27.878154 
L 362.212892 58.73994 
L 362.543794 52.522086 
L 362.874696 42.32329 
L 363.205598 87.440642 
L 363.5365 158.111856 
L 363.867402 25.224193 
L 364.198304 48.275747 
L 364.529206 86.265316 
L 364.860108 49.451073 
L 365.19101 31.062909 
L 365.521912 112.615366 
L 365.852814 146.510251 
L 366.183716 158.111856 
L 366.514618 165.65669 
L 366.84552 137.18347 
L 367.176422 94.11346 
L 367.507324 139.951174 
L 367.838226 59.156991 
L 368.169127 30.26672 
L 368.500029 16.428205 
L 368.830931 15.328706 
L 369.161833 15.36662 
L 369.492735 14.797914 
L 369.823637 15.177051 
L 370.154539 15.177051 
L 370.485441 15.632016 
L 370.816343 15.025396 
L 371.147245 15.480361 
L 371.478147 17.413962 
L 371.809049 28.825998 
L 372.139951 25.375848 
L 372.470853 16.238636 
L 372.801755 16.769428 
L 373.132657 19.688786 
L 373.463559 15.252879 
L 373.794461 15.36662 
L 374.456265 31.100822 
L 374.787167 20.03001 
L 375.118069 16.27655 
L 375.448971 15.177051 
L 375.779873 15.632016 
L 376.110775 14.873741 
L 376.441677 15.290792 
L 377.103481 21.432818 
L 377.434383 46.266319 
L 377.765285 150.870331 
L 378.096187 128.690792 
L 378.427089 15.101224 
L 379.088893 15.66993 
L 379.419795 64.464915 
L 379.750697 23.025196 
L 380.081599 16.390291 
L 380.412501 14.76 
L 381.074305 23.518074 
L 381.405206 127.022588 
L 381.736108 104.577653 
L 382.06701 15.594102 
L 382.397912 14.835827 
L 382.728814 14.797914 
L 383.059716 126.64345 
L 383.390618 18.854684 
L 383.72152 149.998315 
L 384.052422 86.416971 
L 384.383324 152.576449 
L 384.714226 28.105637 
L 385.045128 18.930512 
L 385.37603 15.36662 
L 385.706932 15.66993 
L 386.037834 15.139137 
L 386.368736 14.873741 
L 386.699638 14.835827 
L 387.03054 15.06331 
L 387.361442 27.916068 
L 387.692344 91.57324 
L 388.023246 15.06331 
L 388.354148 14.797914 
L 388.68505 33.527302 
L 389.015952 16.238636 
L 389.346854 26.702828 
L 389.677756 92.028205 
L 390.008658 67.687583 
L 390.33956 26.285777 
L 390.670462 15.556189 
L 391.001364 15.707844 
L 391.99407 14.76 
L 392.324972 14.797914 
L 392.655874 14.949569 
L 393.317678 14.797914 
L 393.64858 14.949569 
L 393.979482 15.897412 
L 394.310383 44.522287 
L 394.641285 156.671133 
L 394.972187 52.86331 
L 395.303089 18.058495 
L 395.633991 125.354383 
L 396.295795 112.880762 
L 396.957599 44.673942 
L 397.288501 20.902026 
L 397.619403 25.527503 
L 397.950305 75.497813 
L 398.281207 15.594102 
L 398.612109 15.025396 
L 398.943011 14.76 
L 399.604815 14.797914 
L 400.266619 15.025396 
L 400.597521 14.797914 
L 400.928423 14.835827 
L 401.259325 15.06331 
L 401.590227 16.845256 
L 401.921129 19.385476 
L 402.252031 17.831013 
L 402.913835 46.948766 
L 403.575639 120.76682 
L 403.906541 146.889388 
L 404.237443 43.081565 
L 404.568345 14.911655 
L 404.899247 14.76 
L 405.561051 14.873741 
L 405.891953 14.76 
L 406.222855 15.897412 
L 406.553757 22.759799 
L 406.884659 117.127101 
L 407.215561 108.482768 
L 407.546462 17.413962 
L 407.877364 18.551374 
L 408.208266 15.025396 
L 408.539168 14.797914 
L 408.87007 15.06331 
L 409.200972 15.025396 
L 409.862776 15.36662 
L 410.193678 49.10985 
L 410.52458 39.593501 
L 410.855482 44.901424 
L 411.186384 35.877954 
L 411.517286 19.461304 
L 411.848188 24.807141 
L 412.17909 150.187884 
L 412.509992 103.250672 
L 412.840894 15.859498 
L 413.171796 18.740943 
L 413.502698 27.878154 
L 413.8336 95.364614 
L 414.164502 15.556189 
L 414.495404 15.404534 
L 414.826306 15.025396 
L 415.157208 15.025396 
L 415.48811 16.617773 
L 415.819012 16.162808 
L 416.149914 17.413962 
L 416.480816 17.793099 
L 416.811718 19.42339 
L 417.14262 15.06331 
L 417.473522 14.797914 
L 417.804424 14.797914 
L 418.135326 14.987482 
L 418.466228 16.541946 
L 418.79713 24.845055 
L 419.128032 18.285978 
L 419.458934 65.943551 
L 419.789836 85.99992 
L 420.120738 53.394102 
L 420.451639 80.919478 
L 420.782541 149.24004 
L 421.113443 18.475547 
L 421.444345 15.328706 
L 421.775247 14.949569 
L 422.106149 14.987482 
L 422.437051 14.76 
L 423.098855 14.797914 
L 423.429757 16.541946 
L 423.760659 15.139137 
L 424.091561 14.835827 
L 424.753365 14.76 
L 425.084267 14.911655 
L 425.415169 74.929107 
L 425.746071 165.96 
L 426.076973 22.494403 
L 426.407875 16.996911 
L 426.738777 27.650672 
L 427.069679 15.821585 
L 427.400581 14.797914 
L 427.731483 14.797914 
L 428.062385 14.949569 
L 428.724189 14.949569 
L 429.055091 14.797914 
L 429.385993 14.987482 
L 429.716895 14.797914 
L 430.047797 14.76 
L 430.378699 14.911655 
L 430.709601 14.76 
L 431.371405 14.835827 
L 432.695013 15.025396 
L 433.025915 16.504032 
L 433.356817 32.048666 
L 433.687718 21.584473 
L 434.01862 19.992096 
L 434.349522 54.190291 
L 434.680424 21.508646 
L 435.011326 27.42319 
L 435.342228 30.532116 
L 435.67313 16.200722 
L 436.004032 14.797914 
L 436.996738 14.835827 
L 437.658542 14.76 
L 438.98215 14.797914 
L 439.313052 14.873741 
L 439.643954 14.797914 
L 439.974856 15.404534 
L 440.305758 17.944754 
L 440.63666 15.745757 
L 440.967562 15.745757 
L 441.298464 14.797914 
L 441.629366 14.873741 
L 441.960268 15.36662 
L 442.29117 33.375647 
L 442.622072 15.328706 
L 442.952974 14.797914 
L 443.614778 14.835827 
L 443.94568 19.992096 
L 444.276582 19.688786 
L 444.607484 15.101224 
L 444.938386 15.442447 
L 445.269288 14.873741 
L 445.60019 15.214965 
L 445.931092 14.987482 
L 446.261994 120.956389 
L 446.592896 15.518275 
L 446.923797 14.873741 
L 447.254699 15.025396 
L 447.585601 15.025396 
L 447.916503 15.328706 
L 448.247405 15.290792 
L 448.578307 15.139137 
L 448.909209 15.290792 
L 449.240111 18.323892 
L 449.571013 14.911655 
L 450.563719 14.835827 
L 450.894621 14.987482 
L 451.225523 17.603531 
L 451.556425 15.859498 
L 451.887327 134.870732 
L 452.218229 22.873541 
L 452.549131 14.911655 
L 452.880033 14.76 
L 453.210935 15.101224 
L 453.541837 135.894403 
L 453.872739 14.911655 
L 454.203641 14.873741 
L 454.534543 26.930311 
L 454.865445 16.958997 
L 455.196347 22.380662 
L 455.527249 15.025396 
L 456.189053 14.873741 
L 456.519955 15.404534 
L 456.850857 15.06331 
L 457.181759 19.309649 
L 457.512661 15.518275 
L 457.843563 15.935326 
L 458.505367 15.214965 
L 458.836269 15.66993 
L 459.167171 123.155386 
L 459.498073 16.769428 
L 459.828974 14.911655 
L 460.159876 87.743952 
L 460.490778 93.279358 
L 460.82168 108.558596 
L 461.152582 69.27996 
L 461.483484 65.678154 
L 462.145288 18.778857 
L 462.47619 15.897412 
L 462.807092 14.797914 
L 463.468896 14.835827 
L 464.1307 14.76 
L 465.454308 14.797914 
L 465.78521 14.949569 
L 466.116112 15.290792 
L 466.447014 15.101224 
L 466.777916 15.139137 
L 467.108818 16.314463 
L 467.43972 14.873741 
L 467.770622 16.57986 
L 468.101524 28.446861 
L 468.432426 63.972036 
L 469.09423 21.24325 
L 469.425132 26.81657 
L 469.756034 27.574845 
L 470.086936 16.200722 
L 470.417838 15.556189 
L 470.74874 20.181665 
L 471.079642 131.761805 
L 471.410544 14.76 
L 471.741446 14.76 
L 472.072348 14.911655 
L 472.40325 14.76 
L 474.057759 14.797914 
L 474.388661 66.588084 
L 474.719563 34.058094 
L 475.050465 124.330712 
L 475.381367 22.835627 
L 475.712269 21.470732 
L 476.043171 57.261304 
L 476.374073 16.200722 
L 476.704975 14.797914 
L 478.028583 14.835827 
L 478.359485 16.27655 
L 478.690387 28.143551 
L 479.021289 141.922688 
L 479.352191 23.404333 
L 479.683093 47.441645 
L 480.013995 20.219579 
L 480.344897 25.717071 
L 481.006701 14.873741 
L 481.337603 15.252879 
L 481.668505 16.390291 
L 481.999407 24.731314 
L 482.330309 48.920281 
L 482.661211 18.551374 
L 482.992113 31.517874 
L 483.323015 22.191093 
L 483.653917 22.683972 
L 483.984819 119.970632 
L 484.315721 18.475547 
L 484.646623 148.671334 
L 484.977525 124.40654 
L 485.308427 138.358796 
L 485.639329 76.786881 
L 485.97023 40.692999 
L 486.301132 34.133922 
L 486.632034 64.881966 
L 486.962936 17.489789 
L 487.293838 70.379458 
L 487.62474 15.404534 
L 487.955642 14.835827 
L 488.286544 15.139137 
L 488.617446 15.897412 
L 488.948348 14.873741 
L 489.610152 14.76 
L 489.941054 15.101224 
L 490.271956 15.025396 
L 490.602858 16.541946 
L 490.93376 14.76 
L 491.595564 14.873741 
L 491.926466 15.252879 
L 492.257368 14.835827 
L 492.58827 16.390291 
L 492.919172 16.238636 
L 493.250074 17.527703 
L 493.580976 101.013761 
L 493.911878 19.537131 
L 494.24278 16.086981 
L 494.573682 56.654684 
L 494.904584 42.854082 
L 495.235486 16.428205 
L 495.566388 21.053681 
L 495.89729 20.902026 
L 496.228192 14.835827 
L 496.889996 14.76 
L 498.213604 14.873741 
L 498.875408 14.76 
L 501.191721 14.76 
L 501.522623 14.911655 
L 501.853525 17.793099 
L 502.515329 15.06331 
L 502.846231 16.124895 
L 503.177133 18.51346 
L 503.508035 14.76 
L 503.838937 14.873741 
L 504.169839 14.835827 
L 504.500741 19.461304 
L 504.831643 48.389488 
L 505.162545 128.16 
L 505.493447 48.768626 
L 505.824349 69.204132 
L 506.155251 37.280762 
L 506.486153 17.300221 
L 506.817055 14.76 
L 507.147957 14.797914 
L 507.478859 14.949569 
L 507.809761 14.835827 
L 508.140663 15.139137 
L 508.471565 115.345155 
L 508.802467 36.522487 
L 509.464271 127.55338 
L 509.795173 151.894002 
L 510.126075 22.911454 
L 510.456977 102.302828 
L 510.787879 115.49681 
L 511.118781 93.885978 
L 511.449683 87.023591 
L 511.780585 17.641444 
L 512.111487 16.921083 
L 512.442388 47.252076 
L 512.77329 16.57986 
L 513.104192 14.949569 
L 513.435094 14.76 
L 517.075016 14.76 
L 517.405918 14.911655 
L 518.729526 14.797914 
L 519.060428 14.949569 
L 519.39133 24.465918 
L 519.722232 21.432818 
L 520.053134 15.290792 
L 520.384036 15.177051 
L 520.714938 16.88317 
L 521.04584 15.101224 
L 522.038546 14.76 
L 523.693056 14.797914 
L 524.023958 14.911655 
L 524.35486 15.518275 
L 524.685762 57.754183 
L 525.016664 23.593902 
L 525.347565 14.76 
L 525.678467 14.797914 
L 526.009369 15.480361 
L 526.340271 149.012558 
L 526.671173 63.024193 
L 527.002075 20.522889 
L 527.332977 21.925697 
L 527.663879 22.759799 
L 528.325683 28.750171 
L 528.656585 16.504032 
L 528.987487 15.404534 
L 529.318389 15.06331 
L 529.649291 15.101224 
L 529.980193 15.442447 
L 530.311095 15.404534 
L 530.641997 14.835827 
L 530.972899 15.139137 
L 531.303801 73.374644 
L 531.634703 33.792698 
L 531.965605 68.256289 
L 532.296507 114.852277 
L 532.627409 42.285376 
L 532.958311 165.35338 
L 533.289213 129.145757 
L 533.620115 18.172237 
L 533.951017 32.731113 
L 534.281919 29.849669 
L 534.612821 16.996911 
L 534.943723 19.688786 
L 535.274625 40.162207 
L 535.605527 133.73332 
L 535.936429 64.540742 
L 536.267331 35.347161 
L 536.598233 110.947161 
L 536.929135 14.76 
L 537.260037 14.987482 
L 537.590939 116.179258 
L 537.921841 138.662106 
L 538.252743 14.835827 
L 538.583644 29.015567 
L 538.914546 91.383671 
L 539.245448 34.550973 
L 539.57635 21.091595 
L 539.907252 19.7267 
L 540.238154 14.797914 
L 540.899958 15.06331 
L 541.23086 14.76 
L 541.561762 14.835827 
L 541.892664 64.161605 
L 542.223566 15.177051 
L 542.554468 14.76 
L 542.88537 16.921083 
L 543.216272 14.76 
L 543.547174 14.76 
L 543.878076 15.252879 
L 544.208978 24.276349 
L 544.53988 15.025396 
L 544.870782 14.797914 
L 545.532586 14.797914 
L 546.525292 14.76 
L 546.856194 14.76 
L 547.187096 16.314463 
L 547.517998 128.387482 
L 547.8489 15.480361 
L 548.179802 14.76 
L 548.510704 120.122287 
L 548.841606 50.323089 
L 549.172508 136.501023 
L 549.50341 16.200722 
L 549.834312 14.987482 
L 550.165214 14.797914 
L 551.15792 14.76 
L 551.819723 14.76 
L 552.150625 127.970431 
L 552.481527 14.76 
L 553.143331 14.76 
L 553.474233 111.781264 
L 553.805135 26.058295 
L 554.136037 55.972237 
L 554.797841 15.783671 
L 555.128743 28.901825 
L 555.459645 25.489589 
L 555.790547 14.835827 
L 556.121449 126.529709 
L 556.452351 126.453882 
L 556.783253 14.987482 
L 557.114155 14.76 
L 557.445057 14.76 
L 557.775959 20.977854 
L 558.106861 117.771635 
L 558.437763 125.202728 
L 558.768665 115.534724 
L 559.099567 135.477352 
L 559.430469 15.290792 
L 559.761371 15.290792 
L 560.754077 15.66993 
L 561.084979 14.949569 
L 561.415881 15.290792 
L 562.408587 15.252879 
L 562.739489 118.52991 
L 562.739489 118.52991 
" clip-path="url(#pd07d638236)" style="fill: none; stroke: #ff7f0e; stroke-opacity: 0.6; stroke-width: 0.3; stroke-linecap: square"/>
   </g>
   <g id="patch_3">
    <path d="M 30.103125 173.52 
L 30.103125 7.2 
" style="fill: none; stroke: #000000; stroke-width: 0.8; stroke-linejoin: miter; stroke-linecap: square"/>
   </g>
   <g id="patch_4">
    <path d="M 588.103125 173.52 
L 588.103125 7.2 
" style="fill: none; stroke: #000000; stroke-width: 0.8; stroke-linejoin: miter; stroke-linecap: square"/>
   </g>
   <g id="patch_5">
    <path d="M 30.103125 173.52 
L 588.103125 173.52 
" style="fill: none; stroke: #000000; stroke-width: 0.8; stroke-linejoin: miter; stroke-linecap: square"/>
   </g>
   <g id="patch_6">
    <path d="M 30.103125 7.2 
L 588.103125 7.2 
" style="fill: none; stroke: #000000; stroke-width: 0.8; stroke-linejoin: miter; stroke-linecap: square"/>
   </g>
  </g>
 </g>
 <defs>
  <clipPath id="pd07d638236">
   <rect x="30.103125" y="7.2" width="558" height="166.32"/>
  </clipPath>
 </defs>
</svg>
