<?xml version="1.0" encoding="utf-8" standalone="no"?>
<!DOCTYPE svg PUBLIC "-//W3C//DTD SVG 1.1//EN"
  "http://www.w3.org/Graphics/SVG/1.1/DTD/svg11.dtd">
<svg xmlns:xlink="http://www.w3.org/1999/xlink" width="928.37125pt" height="207.99625pt" viewBox="0 0 928.37125 207.99625" xmlns="http://www.w3.org/2000/svg" version="1.1">
 <metadata>
  <rdf:RDF xmlns:dc="http://purl.org/dc/elements/1.1/" xmlns:cc="http://creativecommons.org/ns#" xmlns:rdf="http://www.w3.org/1999/02/22-rdf-syntax-ns#">
   <cc:Work>
    <dc:type rdf:resource="http://purl.org/dc/dcmitype/StillImage"/>
    <dc:date>2025-05-16T12:11:22.121940</dc:date>
    <dc:format>image/svg+xml</dc:format>
    <dc:creator>
     <cc:Agent>
      <dc:title>Matplotlib v3.10.3, https://matplotlib.org/</dc:title>
     </cc:Agent>
    </dc:creator>
   </cc:Work>
  </rdf:RDF>
 </metadata>
 <defs>
  <style type="text/css">*{stroke-linejoin: round; stroke-linecap: butt}</style>
 </defs>
 <g id="figure_1">
  <g id="patch_1">
   <path d="M 0 207.99625 
L 928.37125 207.99625 
L 928.37125 0 
L 0 0 
z
" style="fill: #ffffff"/>
  </g>
  <g id="axes_1">
   <g id="patch_2">
    <path d="M 43.78125 170.44 
L 921.17125 170.44 
L 921.17125 7.2 
L 43.78125 7.2 
z
" style="fill: #ffffff"/>
   </g>
   <g id="patch_3">
    <path d="M 404.451411 170.44 
L 409.219796 170.44 
L 409.219796 90.116356 
L 404.451411 90.116356 
z
" clip-path="url(#p897e5d5e4b)" style="fill: #d62728; opacity: 0.5"/>
   </g>
   <g id="patch_4">
    <path d="M 409.219796 170.44 
L 413.988181 170.44 
L 413.988181 103.50363 
L 409.219796 103.50363 
z
" clip-path="url(#p897e5d5e4b)" style="fill: #d62728; opacity: 0.5"/>
   </g>
   <g id="patch_5">
    <path d="M 413.988181 170.44 
L 418.756566 170.44 
L 418.756566 130.278178 
L 413.988181 130.278178 
z
" clip-path="url(#p897e5d5e4b)" style="fill: #d62728; opacity: 0.5"/>
   </g>
   <g id="patch_6">
    <path d="M 418.756566 170.44 
L 423.52495 170.44 
L 423.52495 136.971815 
L 418.756566 136.971815 
z
" clip-path="url(#p897e5d5e4b)" style="fill: #d62728; opacity: 0.5"/>
   </g>
   <g id="patch_7">
    <path d="M 423.52495 170.44 
L 428.293335 170.44 
L 428.293335 123.584541 
L 423.52495 123.584541 
z
" clip-path="url(#p897e5d5e4b)" style="fill: #d62728; opacity: 0.5"/>
   </g>
   <g id="patch_8">
    <path d="M 428.293335 170.44 
L 433.06172 170.44 
L 433.06172 130.278178 
L 428.293335 130.278178 
z
" clip-path="url(#p897e5d5e4b)" style="fill: #d62728; opacity: 0.5"/>
   </g>
   <g id="patch_9">
    <path d="M 433.06172 170.44 
L 437.830105 170.44 
L 437.830105 130.278178 
L 433.06172 130.278178 
z
" clip-path="url(#p897e5d5e4b)" style="fill: #d62728; opacity: 0.5"/>
   </g>
   <g id="patch_10">
    <path d="M 437.830105 170.44 
L 442.598489 170.44 
L 442.598489 96.809993 
L 437.830105 96.809993 
z
" clip-path="url(#p897e5d5e4b)" style="fill: #d62728; opacity: 0.5"/>
   </g>
   <g id="patch_11">
    <path d="M 442.598489 170.44 
L 447.366874 170.44 
L 447.366874 83.422719 
L 442.598489 83.422719 
z
" clip-path="url(#p897e5d5e4b)" style="fill: #d62728; opacity: 0.5"/>
   </g>
   <g id="patch_12">
    <path d="M 447.366874 170.44 
L 452.135259 170.44 
L 452.135259 116.890904 
L 447.366874 116.890904 
z
" clip-path="url(#p897e5d5e4b)" style="fill: #d62728; opacity: 0.5"/>
   </g>
   <g id="patch_13">
    <path d="M 452.135259 170.44 
L 456.903644 170.44 
L 456.903644 76.729082 
L 452.135259 76.729082 
z
" clip-path="url(#p897e5d5e4b)" style="fill: #d62728; opacity: 0.5"/>
   </g>
   <g id="patch_14">
    <path d="M 456.903644 170.44 
L 461.672028 170.44 
L 461.672028 123.584541 
L 456.903644 123.584541 
z
" clip-path="url(#p897e5d5e4b)" style="fill: #d62728; opacity: 0.5"/>
   </g>
   <g id="patch_15">
    <path d="M 461.672028 170.44 
L 466.440413 170.44 
L 466.440413 110.197267 
L 461.672028 110.197267 
z
" clip-path="url(#p897e5d5e4b)" style="fill: #d62728; opacity: 0.5"/>
   </g>
   <g id="patch_16">
    <path d="M 466.440413 170.44 
L 471.208798 170.44 
L 471.208798 110.197267 
L 466.440413 110.197267 
z
" clip-path="url(#p897e5d5e4b)" style="fill: #d62728; opacity: 0.5"/>
   </g>
   <g id="patch_17">
    <path d="M 471.208798 170.44 
L 475.977183 170.44 
L 475.977183 116.890904 
L 471.208798 116.890904 
z
" clip-path="url(#p897e5d5e4b)" style="fill: #d62728; opacity: 0.5"/>
   </g>
   <g id="patch_18">
    <path d="M 475.977183 170.44 
L 480.745567 170.44 
L 480.745567 116.890904 
L 475.977183 116.890904 
z
" clip-path="url(#p897e5d5e4b)" style="fill: #d62728; opacity: 0.5"/>
   </g>
   <g id="patch_19">
    <path d="M 480.745567 170.44 
L 485.513952 170.44 
L 485.513952 70.035445 
L 480.745567 70.035445 
z
" clip-path="url(#p897e5d5e4b)" style="fill: #d62728; opacity: 0.5"/>
   </g>
   <g id="patch_20">
    <path d="M 485.513952 170.44 
L 490.282337 170.44 
L 490.282337 76.729082 
L 485.513952 76.729082 
z
" clip-path="url(#p897e5d5e4b)" style="fill: #d62728; opacity: 0.5"/>
   </g>
   <g id="patch_21">
    <path d="M 490.282337 170.44 
L 495.050722 170.44 
L 495.050722 90.116356 
L 490.282337 90.116356 
z
" clip-path="url(#p897e5d5e4b)" style="fill: #d62728; opacity: 0.5"/>
   </g>
   <g id="patch_22">
    <path d="M 495.050722 170.44 
L 499.819106 170.44 
L 499.819106 83.422719 
L 495.050722 83.422719 
z
" clip-path="url(#p897e5d5e4b)" style="fill: #d62728; opacity: 0.5"/>
   </g>
   <g id="patch_23">
    <path d="M 499.819106 170.44 
L 504.587491 170.44 
L 504.587491 116.890904 
L 499.819106 116.890904 
z
" clip-path="url(#p897e5d5e4b)" style="fill: #d62728; opacity: 0.5"/>
   </g>
   <g id="patch_24">
    <path d="M 504.587491 170.44 
L 509.355876 170.44 
L 509.355876 76.729082 
L 504.587491 76.729082 
z
" clip-path="url(#p897e5d5e4b)" style="fill: #d62728; opacity: 0.5"/>
   </g>
   <g id="patch_25">
    <path d="M 509.355876 170.44 
L 514.124261 170.44 
L 514.124261 110.197267 
L 509.355876 110.197267 
z
" clip-path="url(#p897e5d5e4b)" style="fill: #d62728; opacity: 0.5"/>
   </g>
   <g id="patch_26">
    <path d="M 514.124261 170.44 
L 518.892645 170.44 
L 518.892645 110.197267 
L 514.124261 110.197267 
z
" clip-path="url(#p897e5d5e4b)" style="fill: #d62728; opacity: 0.5"/>
   </g>
   <g id="patch_27">
    <path d="M 518.892645 170.44 
L 523.66103 170.44 
L 523.66103 70.035445 
L 518.892645 70.035445 
z
" clip-path="url(#p897e5d5e4b)" style="fill: #d62728; opacity: 0.5"/>
   </g>
   <g id="patch_28">
    <path d="M 523.66103 170.44 
L 528.429415 170.44 
L 528.429415 110.197267 
L 523.66103 110.197267 
z
" clip-path="url(#p897e5d5e4b)" style="fill: #d62728; opacity: 0.5"/>
   </g>
   <g id="patch_29">
    <path d="M 528.429415 170.44 
L 533.1978 170.44 
L 533.1978 157.052726 
L 528.429415 157.052726 
z
" clip-path="url(#p897e5d5e4b)" style="fill: #d62728; opacity: 0.5"/>
   </g>
   <g id="patch_30">
    <path d="M 533.1978 170.44 
L 537.966184 170.44 
L 537.966184 103.50363 
L 533.1978 103.50363 
z
" clip-path="url(#p897e5d5e4b)" style="fill: #d62728; opacity: 0.5"/>
   </g>
   <g id="patch_31">
    <path d="M 537.966184 170.44 
L 542.734569 170.44 
L 542.734569 110.197267 
L 537.966184 110.197267 
z
" clip-path="url(#p897e5d5e4b)" style="fill: #d62728; opacity: 0.5"/>
   </g>
   <g id="patch_32">
    <path d="M 542.734569 170.44 
L 547.502954 170.44 
L 547.502954 110.197267 
L 542.734569 110.197267 
z
" clip-path="url(#p897e5d5e4b)" style="fill: #d62728; opacity: 0.5"/>
   </g>
   <g id="patch_33">
    <path d="M 547.502954 170.44 
L 552.271339 170.44 
L 552.271339 76.729082 
L 547.502954 76.729082 
z
" clip-path="url(#p897e5d5e4b)" style="fill: #d62728; opacity: 0.5"/>
   </g>
   <g id="patch_34">
    <path d="M 552.271339 170.44 
L 557.039723 170.44 
L 557.039723 103.50363 
L 552.271339 103.50363 
z
" clip-path="url(#p897e5d5e4b)" style="fill: #d62728; opacity: 0.5"/>
   </g>
   <g id="patch_35">
    <path d="M 557.039723 170.44 
L 561.808108 170.44 
L 561.808108 103.50363 
L 557.039723 103.50363 
z
" clip-path="url(#p897e5d5e4b)" style="fill: #d62728; opacity: 0.5"/>
   </g>
   <g id="patch_36">
    <path d="M 561.808108 170.44 
L 566.576493 170.44 
L 566.576493 96.809993 
L 561.808108 96.809993 
z
" clip-path="url(#p897e5d5e4b)" style="fill: #d62728; opacity: 0.5"/>
   </g>
   <g id="patch_37">
    <path d="M 566.576493 170.44 
L 571.344878 170.44 
L 571.344878 130.278178 
L 566.576493 130.278178 
z
" clip-path="url(#p897e5d5e4b)" style="fill: #d62728; opacity: 0.5"/>
   </g>
   <g id="patch_38">
    <path d="M 571.344878 170.44 
L 576.113262 170.44 
L 576.113262 116.890904 
L 571.344878 116.890904 
z
" clip-path="url(#p897e5d5e4b)" style="fill: #d62728; opacity: 0.5"/>
   </g>
   <g id="patch_39">
    <path d="M 576.113262 170.44 
L 580.881647 170.44 
L 580.881647 116.890904 
L 576.113262 116.890904 
z
" clip-path="url(#p897e5d5e4b)" style="fill: #d62728; opacity: 0.5"/>
   </g>
   <g id="patch_40">
    <path d="M 580.881647 170.44 
L 585.650032 170.44 
L 585.650032 110.197267 
L 580.881647 110.197267 
z
" clip-path="url(#p897e5d5e4b)" style="fill: #d62728; opacity: 0.5"/>
   </g>
   <g id="patch_41">
    <path d="M 585.650032 170.44 
L 590.418417 170.44 
L 590.418417 96.809993 
L 585.650032 96.809993 
z
" clip-path="url(#p897e5d5e4b)" style="fill: #d62728; opacity: 0.5"/>
   </g>
   <g id="patch_42">
    <path d="M 590.418417 170.44 
L 595.186801 170.44 
L 595.186801 96.809993 
L 590.418417 96.809993 
z
" clip-path="url(#p897e5d5e4b)" style="fill: #d62728; opacity: 0.5"/>
   </g>
   <g id="patch_43">
    <path d="M 595.186801 170.44 
L 599.955186 170.44 
L 599.955186 116.890904 
L 595.186801 116.890904 
z
" clip-path="url(#p897e5d5e4b)" style="fill: #d62728; opacity: 0.5"/>
   </g>
   <g id="patch_44">
    <path d="M 599.955186 170.44 
L 604.723571 170.44 
L 604.723571 110.197267 
L 599.955186 110.197267 
z
" clip-path="url(#p897e5d5e4b)" style="fill: #d62728; opacity: 0.5"/>
   </g>
   <g id="patch_45">
    <path d="M 604.723571 170.44 
L 609.491956 170.44 
L 609.491956 110.197267 
L 604.723571 110.197267 
z
" clip-path="url(#p897e5d5e4b)" style="fill: #d62728; opacity: 0.5"/>
   </g>
   <g id="patch_46">
    <path d="M 609.491956 170.44 
L 614.26034 170.44 
L 614.26034 157.052726 
L 609.491956 157.052726 
z
" clip-path="url(#p897e5d5e4b)" style="fill: #d62728; opacity: 0.5"/>
   </g>
   <g id="patch_47">
    <path d="M 614.26034 170.44 
L 619.028725 170.44 
L 619.028725 130.278178 
L 614.26034 130.278178 
z
" clip-path="url(#p897e5d5e4b)" style="fill: #d62728; opacity: 0.5"/>
   </g>
   <g id="patch_48">
    <path d="M 619.028725 170.44 
L 623.79711 170.44 
L 623.79711 116.890904 
L 619.028725 116.890904 
z
" clip-path="url(#p897e5d5e4b)" style="fill: #d62728; opacity: 0.5"/>
   </g>
   <g id="patch_49">
    <path d="M 623.79711 170.44 
L 628.565495 170.44 
L 628.565495 110.197267 
L 623.79711 110.197267 
z
" clip-path="url(#p897e5d5e4b)" style="fill: #d62728; opacity: 0.5"/>
   </g>
   <g id="patch_50">
    <path d="M 628.565495 170.44 
L 633.333879 170.44 
L 633.333879 110.197267 
L 628.565495 110.197267 
z
" clip-path="url(#p897e5d5e4b)" style="fill: #d62728; opacity: 0.5"/>
   </g>
   <g id="patch_51">
    <path d="M 633.333879 170.44 
L 638.102264 170.44 
L 638.102264 136.971815 
L 633.333879 136.971815 
z
" clip-path="url(#p897e5d5e4b)" style="fill: #d62728; opacity: 0.5"/>
   </g>
   <g id="patch_52">
    <path d="M 638.102264 170.44 
L 642.870649 170.44 
L 642.870649 76.729082 
L 638.102264 76.729082 
z
" clip-path="url(#p897e5d5e4b)" style="fill: #d62728; opacity: 0.5"/>
   </g>
   <g id="patch_53">
    <path d="M 642.870649 170.44 
L 647.639034 170.44 
L 647.639034 123.584541 
L 642.870649 123.584541 
z
" clip-path="url(#p897e5d5e4b)" style="fill: #d62728; opacity: 0.5"/>
   </g>
   <g id="patch_54">
    <path d="M 647.639034 170.44 
L 652.407418 170.44 
L 652.407418 103.50363 
L 647.639034 103.50363 
z
" clip-path="url(#p897e5d5e4b)" style="fill: #d62728; opacity: 0.5"/>
   </g>
   <g id="patch_55">
    <path d="M 652.407418 170.44 
L 657.175803 170.44 
L 657.175803 150.359089 
L 652.407418 150.359089 
z
" clip-path="url(#p897e5d5e4b)" style="fill: #d62728; opacity: 0.5"/>
   </g>
   <g id="patch_56">
    <path d="M 657.175803 170.44 
L 661.944188 170.44 
L 661.944188 123.584541 
L 657.175803 123.584541 
z
" clip-path="url(#p897e5d5e4b)" style="fill: #d62728; opacity: 0.5"/>
   </g>
   <g id="patch_57">
    <path d="M 661.944188 170.44 
L 666.712573 170.44 
L 666.712573 116.890904 
L 661.944188 116.890904 
z
" clip-path="url(#p897e5d5e4b)" style="fill: #d62728; opacity: 0.5"/>
   </g>
   <g id="patch_58">
    <path d="M 666.712573 170.44 
L 671.480957 170.44 
L 671.480957 143.665452 
L 666.712573 143.665452 
z
" clip-path="url(#p897e5d5e4b)" style="fill: #d62728; opacity: 0.5"/>
   </g>
   <g id="patch_59">
    <path d="M 671.480957 170.44 
L 676.249342 170.44 
L 676.249342 123.584541 
L 671.480957 123.584541 
z
" clip-path="url(#p897e5d5e4b)" style="fill: #d62728; opacity: 0.5"/>
   </g>
   <g id="patch_60">
    <path d="M 676.249342 170.44 
L 681.017727 170.44 
L 681.017727 103.50363 
L 676.249342 103.50363 
z
" clip-path="url(#p897e5d5e4b)" style="fill: #d62728; opacity: 0.5"/>
   </g>
   <g id="patch_61">
    <path d="M 681.017727 170.44 
L 685.786112 170.44 
L 685.786112 143.665452 
L 681.017727 143.665452 
z
" clip-path="url(#p897e5d5e4b)" style="fill: #d62728; opacity: 0.5"/>
   </g>
   <g id="patch_62">
    <path d="M 685.786112 170.44 
L 690.554496 170.44 
L 690.554496 150.359089 
L 685.786112 150.359089 
z
" clip-path="url(#p897e5d5e4b)" style="fill: #d62728; opacity: 0.5"/>
   </g>
   <g id="patch_63">
    <path d="M 690.554496 170.44 
L 695.322881 170.44 
L 695.322881 123.584541 
L 690.554496 123.584541 
z
" clip-path="url(#p897e5d5e4b)" style="fill: #d62728; opacity: 0.5"/>
   </g>
   <g id="patch_64">
    <path d="M 695.322881 170.44 
L 700.091266 170.44 
L 700.091266 136.971815 
L 695.322881 136.971815 
z
" clip-path="url(#p897e5d5e4b)" style="fill: #d62728; opacity: 0.5"/>
   </g>
   <g id="patch_65">
    <path d="M 700.091266 170.44 
L 704.859651 170.44 
L 704.859651 96.809993 
L 700.091266 96.809993 
z
" clip-path="url(#p897e5d5e4b)" style="fill: #d62728; opacity: 0.5"/>
   </g>
   <g id="patch_66">
    <path d="M 704.859651 170.44 
L 709.628035 170.44 
L 709.628035 116.890904 
L 704.859651 116.890904 
z
" clip-path="url(#p897e5d5e4b)" style="fill: #d62728; opacity: 0.5"/>
   </g>
   <g id="patch_67">
    <path d="M 709.628035 170.44 
L 714.39642 170.44 
L 714.39642 130.278178 
L 709.628035 130.278178 
z
" clip-path="url(#p897e5d5e4b)" style="fill: #d62728; opacity: 0.5"/>
   </g>
   <g id="patch_68">
    <path d="M 714.39642 170.44 
L 719.164805 170.44 
L 719.164805 123.584541 
L 714.39642 123.584541 
z
" clip-path="url(#p897e5d5e4b)" style="fill: #d62728; opacity: 0.5"/>
   </g>
   <g id="patch_69">
    <path d="M 719.164805 170.44 
L 723.93319 170.44 
L 723.93319 157.052726 
L 719.164805 157.052726 
z
" clip-path="url(#p897e5d5e4b)" style="fill: #d62728; opacity: 0.5"/>
   </g>
   <g id="patch_70">
    <path d="M 723.93319 170.44 
L 728.701574 170.44 
L 728.701574 123.584541 
L 723.93319 123.584541 
z
" clip-path="url(#p897e5d5e4b)" style="fill: #d62728; opacity: 0.5"/>
   </g>
   <g id="patch_71">
    <path d="M 728.701574 170.44 
L 733.469959 170.44 
L 733.469959 123.584541 
L 728.701574 123.584541 
z
" clip-path="url(#p897e5d5e4b)" style="fill: #d62728; opacity: 0.5"/>
   </g>
   <g id="patch_72">
    <path d="M 733.469959 170.44 
L 738.238344 170.44 
L 738.238344 136.971815 
L 733.469959 136.971815 
z
" clip-path="url(#p897e5d5e4b)" style="fill: #d62728; opacity: 0.5"/>
   </g>
   <g id="patch_73">
    <path d="M 738.238344 170.44 
L 743.006729 170.44 
L 743.006729 136.971815 
L 738.238344 136.971815 
z
" clip-path="url(#p897e5d5e4b)" style="fill: #d62728; opacity: 0.5"/>
   </g>
   <g id="patch_74">
    <path d="M 743.006729 170.44 
L 747.775113 170.44 
L 747.775113 110.197267 
L 743.006729 110.197267 
z
" clip-path="url(#p897e5d5e4b)" style="fill: #d62728; opacity: 0.5"/>
   </g>
   <g id="patch_75">
    <path d="M 747.775113 170.44 
L 752.543498 170.44 
L 752.543498 150.359089 
L 747.775113 150.359089 
z
" clip-path="url(#p897e5d5e4b)" style="fill: #d62728; opacity: 0.5"/>
   </g>
   <g id="patch_76">
    <path d="M 752.543498 170.44 
L 757.311883 170.44 
L 757.311883 150.359089 
L 752.543498 150.359089 
z
" clip-path="url(#p897e5d5e4b)" style="fill: #d62728; opacity: 0.5"/>
   </g>
   <g id="patch_77">
    <path d="M 757.311883 170.44 
L 762.080268 170.44 
L 762.080268 163.746363 
L 757.311883 163.746363 
z
" clip-path="url(#p897e5d5e4b)" style="fill: #d62728; opacity: 0.5"/>
   </g>
   <g id="patch_78">
    <path d="M 762.080268 170.44 
L 766.848652 170.44 
L 766.848652 143.665452 
L 762.080268 143.665452 
z
" clip-path="url(#p897e5d5e4b)" style="fill: #d62728; opacity: 0.5"/>
   </g>
   <g id="patch_79">
    <path d="M 766.848652 170.44 
L 771.617037 170.44 
L 771.617037 157.052726 
L 766.848652 157.052726 
z
" clip-path="url(#p897e5d5e4b)" style="fill: #d62728; opacity: 0.5"/>
   </g>
   <g id="patch_80">
    <path d="M 771.617037 170.44 
L 776.385422 170.44 
L 776.385422 163.746363 
L 771.617037 163.746363 
z
" clip-path="url(#p897e5d5e4b)" style="fill: #d62728; opacity: 0.5"/>
   </g>
   <g id="patch_81">
    <path d="M 776.385422 170.44 
L 781.153807 170.44 
L 781.153807 143.665452 
L 776.385422 143.665452 
z
" clip-path="url(#p897e5d5e4b)" style="fill: #d62728; opacity: 0.5"/>
   </g>
   <g id="patch_82">
    <path d="M 781.153807 170.44 
L 785.922191 170.44 
L 785.922191 143.665452 
L 781.153807 143.665452 
z
" clip-path="url(#p897e5d5e4b)" style="fill: #d62728; opacity: 0.5"/>
   </g>
   <g id="patch_83">
    <path d="M 785.922191 170.44 
L 790.690576 170.44 
L 790.690576 170.44 
L 785.922191 170.44 
z
" clip-path="url(#p897e5d5e4b)" style="fill: #d62728; opacity: 0.5"/>
   </g>
   <g id="patch_84">
    <path d="M 790.690576 170.44 
L 795.458961 170.44 
L 795.458961 163.746363 
L 790.690576 163.746363 
z
" clip-path="url(#p897e5d5e4b)" style="fill: #d62728; opacity: 0.5"/>
   </g>
   <g id="patch_85">
    <path d="M 795.458961 170.44 
L 800.227346 170.44 
L 800.227346 170.44 
L 795.458961 170.44 
z
" clip-path="url(#p897e5d5e4b)" style="fill: #d62728; opacity: 0.5"/>
   </g>
   <g id="patch_86">
    <path d="M 800.227346 170.44 
L 804.99573 170.44 
L 804.99573 163.746363 
L 800.227346 163.746363 
z
" clip-path="url(#p897e5d5e4b)" style="fill: #d62728; opacity: 0.5"/>
   </g>
   <g id="patch_87">
    <path d="M 804.99573 170.44 
L 809.764115 170.44 
L 809.764115 163.746363 
L 804.99573 163.746363 
z
" clip-path="url(#p897e5d5e4b)" style="fill: #d62728; opacity: 0.5"/>
   </g>
   <g id="patch_88">
    <path d="M 809.764115 170.44 
L 814.5325 170.44 
L 814.5325 170.44 
L 809.764115 170.44 
z
" clip-path="url(#p897e5d5e4b)" style="fill: #d62728; opacity: 0.5"/>
   </g>
   <g id="patch_89">
    <path d="M 814.5325 170.44 
L 819.300885 170.44 
L 819.300885 163.746363 
L 814.5325 163.746363 
z
" clip-path="url(#p897e5d5e4b)" style="fill: #d62728; opacity: 0.5"/>
   </g>
   <g id="patch_90">
    <path d="M 819.300885 170.44 
L 824.069269 170.44 
L 824.069269 157.052726 
L 819.300885 157.052726 
z
" clip-path="url(#p897e5d5e4b)" style="fill: #d62728; opacity: 0.5"/>
   </g>
   <g id="patch_91">
    <path d="M 824.069269 170.44 
L 828.837654 170.44 
L 828.837654 163.746363 
L 824.069269 163.746363 
z
" clip-path="url(#p897e5d5e4b)" style="fill: #d62728; opacity: 0.5"/>
   </g>
   <g id="patch_92">
    <path d="M 828.837654 170.44 
L 833.606039 170.44 
L 833.606039 157.052726 
L 828.837654 157.052726 
z
" clip-path="url(#p897e5d5e4b)" style="fill: #d62728; opacity: 0.5"/>
   </g>
   <g id="patch_93">
    <path d="M 833.606039 170.44 
L 838.374424 170.44 
L 838.374424 170.44 
L 833.606039 170.44 
z
" clip-path="url(#p897e5d5e4b)" style="fill: #d62728; opacity: 0.5"/>
   </g>
   <g id="patch_94">
    <path d="M 838.374424 170.44 
L 843.142808 170.44 
L 843.142808 170.44 
L 838.374424 170.44 
z
" clip-path="url(#p897e5d5e4b)" style="fill: #d62728; opacity: 0.5"/>
   </g>
   <g id="patch_95">
    <path d="M 843.142808 170.44 
L 847.911193 170.44 
L 847.911193 170.44 
L 843.142808 170.44 
z
" clip-path="url(#p897e5d5e4b)" style="fill: #d62728; opacity: 0.5"/>
   </g>
   <g id="patch_96">
    <path d="M 847.911193 170.44 
L 852.679578 170.44 
L 852.679578 170.44 
L 847.911193 170.44 
z
" clip-path="url(#p897e5d5e4b)" style="fill: #d62728; opacity: 0.5"/>
   </g>
   <g id="patch_97">
    <path d="M 852.679578 170.44 
L 857.447963 170.44 
L 857.447963 170.44 
L 852.679578 170.44 
z
" clip-path="url(#p897e5d5e4b)" style="fill: #d62728; opacity: 0.5"/>
   </g>
   <g id="patch_98">
    <path d="M 857.447963 170.44 
L 862.216347 170.44 
L 862.216347 170.44 
L 857.447963 170.44 
z
" clip-path="url(#p897e5d5e4b)" style="fill: #d62728; opacity: 0.5"/>
   </g>
   <g id="patch_99">
    <path d="M 862.216347 170.44 
L 866.984732 170.44 
L 866.984732 170.44 
L 862.216347 170.44 
z
" clip-path="url(#p897e5d5e4b)" style="fill: #d62728; opacity: 0.5"/>
   </g>
   <g id="patch_100">
    <path d="M 866.984732 170.44 
L 871.753117 170.44 
L 871.753117 170.44 
L 866.984732 170.44 
z
" clip-path="url(#p897e5d5e4b)" style="fill: #d62728; opacity: 0.5"/>
   </g>
   <g id="patch_101">
    <path d="M 871.753117 170.44 
L 876.521502 170.44 
L 876.521502 170.44 
L 871.753117 170.44 
z
" clip-path="url(#p897e5d5e4b)" style="fill: #d62728; opacity: 0.5"/>
   </g>
   <g id="patch_102">
    <path d="M 876.521502 170.44 
L 881.289886 170.44 
L 881.289886 163.746363 
L 876.521502 163.746363 
z
" clip-path="url(#p897e5d5e4b)" style="fill: #d62728; opacity: 0.5"/>
   </g>
   <g id="patch_103">
    <path d="M 83.662614 170.44 
L 86.857335 170.44 
L 86.857335 162.666667 
L 83.662614 162.666667 
z
" clip-path="url(#p897e5d5e4b)" style="fill: #1f77b4; opacity: 0.5"/>
   </g>
   <g id="patch_104">
    <path d="M 86.857335 170.44 
L 90.052056 170.44 
L 90.052056 170.44 
L 86.857335 170.44 
z
" clip-path="url(#p897e5d5e4b)" style="fill: #1f77b4; opacity: 0.5"/>
   </g>
   <g id="patch_105">
    <path d="M 90.052056 170.44 
L 93.246778 170.44 
L 93.246778 170.44 
L 90.052056 170.44 
z
" clip-path="url(#p897e5d5e4b)" style="fill: #1f77b4; opacity: 0.5"/>
   </g>
   <g id="patch_106">
    <path d="M 93.246778 170.44 
L 96.441499 170.44 
L 96.441499 170.44 
L 93.246778 170.44 
z
" clip-path="url(#p897e5d5e4b)" style="fill: #1f77b4; opacity: 0.5"/>
   </g>
   <g id="patch_107">
    <path d="M 96.441499 170.44 
L 99.63622 170.44 
L 99.63622 170.44 
L 96.441499 170.44 
z
" clip-path="url(#p897e5d5e4b)" style="fill: #1f77b4; opacity: 0.5"/>
   </g>
   <g id="patch_108">
    <path d="M 99.63622 170.44 
L 102.830942 170.44 
L 102.830942 170.44 
L 99.63622 170.44 
z
" clip-path="url(#p897e5d5e4b)" style="fill: #1f77b4; opacity: 0.5"/>
   </g>
   <g id="patch_109">
    <path d="M 102.830942 170.44 
L 106.025663 170.44 
L 106.025663 162.666667 
L 102.830942 162.666667 
z
" clip-path="url(#p897e5d5e4b)" style="fill: #1f77b4; opacity: 0.5"/>
   </g>
   <g id="patch_110">
    <path d="M 106.025663 170.44 
L 109.220384 170.44 
L 109.220384 162.666667 
L 106.025663 162.666667 
z
" clip-path="url(#p897e5d5e4b)" style="fill: #1f77b4; opacity: 0.5"/>
   </g>
   <g id="patch_111">
    <path d="M 109.220384 170.44 
L 112.415106 170.44 
L 112.415106 170.44 
L 109.220384 170.44 
z
" clip-path="url(#p897e5d5e4b)" style="fill: #1f77b4; opacity: 0.5"/>
   </g>
   <g id="patch_112">
    <path d="M 112.415106 170.44 
L 115.609827 170.44 
L 115.609827 162.666667 
L 112.415106 162.666667 
z
" clip-path="url(#p897e5d5e4b)" style="fill: #1f77b4; opacity: 0.5"/>
   </g>
   <g id="patch_113">
    <path d="M 115.609827 170.44 
L 118.804548 170.44 
L 118.804548 139.346667 
L 115.609827 139.346667 
z
" clip-path="url(#p897e5d5e4b)" style="fill: #1f77b4; opacity: 0.5"/>
   </g>
   <g id="patch_114">
    <path d="M 118.804548 170.44 
L 121.99927 170.44 
L 121.99927 162.666667 
L 118.804548 162.666667 
z
" clip-path="url(#p897e5d5e4b)" style="fill: #1f77b4; opacity: 0.5"/>
   </g>
   <g id="patch_115">
    <path d="M 121.99927 170.44 
L 125.193991 170.44 
L 125.193991 170.44 
L 121.99927 170.44 
z
" clip-path="url(#p897e5d5e4b)" style="fill: #1f77b4; opacity: 0.5"/>
   </g>
   <g id="patch_116">
    <path d="M 125.193991 170.44 
L 128.388712 170.44 
L 128.388712 162.666667 
L 125.193991 162.666667 
z
" clip-path="url(#p897e5d5e4b)" style="fill: #1f77b4; opacity: 0.5"/>
   </g>
   <g id="patch_117">
    <path d="M 128.388712 170.44 
L 131.583434 170.44 
L 131.583434 162.666667 
L 128.388712 162.666667 
z
" clip-path="url(#p897e5d5e4b)" style="fill: #1f77b4; opacity: 0.5"/>
   </g>
   <g id="patch_118">
    <path d="M 131.583434 170.44 
L 134.778155 170.44 
L 134.778155 154.893333 
L 131.583434 154.893333 
z
" clip-path="url(#p897e5d5e4b)" style="fill: #1f77b4; opacity: 0.5"/>
   </g>
   <g id="patch_119">
    <path d="M 134.778155 170.44 
L 137.972876 170.44 
L 137.972876 162.666667 
L 134.778155 162.666667 
z
" clip-path="url(#p897e5d5e4b)" style="fill: #1f77b4; opacity: 0.5"/>
   </g>
   <g id="patch_120">
    <path d="M 137.972876 170.44 
L 141.167598 170.44 
L 141.167598 147.12 
L 137.972876 147.12 
z
" clip-path="url(#p897e5d5e4b)" style="fill: #1f77b4; opacity: 0.5"/>
   </g>
   <g id="patch_121">
    <path d="M 141.167598 170.44 
L 144.362319 170.44 
L 144.362319 147.12 
L 141.167598 147.12 
z
" clip-path="url(#p897e5d5e4b)" style="fill: #1f77b4; opacity: 0.5"/>
   </g>
   <g id="patch_122">
    <path d="M 144.362319 170.44 
L 147.55704 170.44 
L 147.55704 116.026667 
L 144.362319 116.026667 
z
" clip-path="url(#p897e5d5e4b)" style="fill: #1f77b4; opacity: 0.5"/>
   </g>
   <g id="patch_123">
    <path d="M 147.55704 170.44 
L 150.751762 170.44 
L 150.751762 162.666667 
L 147.55704 162.666667 
z
" clip-path="url(#p897e5d5e4b)" style="fill: #1f77b4; opacity: 0.5"/>
   </g>
   <g id="patch_124">
    <path d="M 150.751762 170.44 
L 153.946483 170.44 
L 153.946483 154.893333 
L 150.751762 154.893333 
z
" clip-path="url(#p897e5d5e4b)" style="fill: #1f77b4; opacity: 0.5"/>
   </g>
   <g id="patch_125">
    <path d="M 153.946483 170.44 
L 157.141204 170.44 
L 157.141204 147.12 
L 153.946483 147.12 
z
" clip-path="url(#p897e5d5e4b)" style="fill: #1f77b4; opacity: 0.5"/>
   </g>
   <g id="patch_126">
    <path d="M 157.141204 170.44 
L 160.335926 170.44 
L 160.335926 147.12 
L 157.141204 147.12 
z
" clip-path="url(#p897e5d5e4b)" style="fill: #1f77b4; opacity: 0.5"/>
   </g>
   <g id="patch_127">
    <path d="M 160.335926 170.44 
L 163.530647 170.44 
L 163.530647 139.346667 
L 160.335926 139.346667 
z
" clip-path="url(#p897e5d5e4b)" style="fill: #1f77b4; opacity: 0.5"/>
   </g>
   <g id="patch_128">
    <path d="M 163.530647 170.44 
L 166.725368 170.44 
L 166.725368 147.12 
L 163.530647 147.12 
z
" clip-path="url(#p897e5d5e4b)" style="fill: #1f77b4; opacity: 0.5"/>
   </g>
   <g id="patch_129">
    <path d="M 166.725368 170.44 
L 169.92009 170.44 
L 169.92009 147.12 
L 166.725368 147.12 
z
" clip-path="url(#p897e5d5e4b)" style="fill: #1f77b4; opacity: 0.5"/>
   </g>
   <g id="patch_130">
    <path d="M 169.92009 170.44 
L 173.114811 170.44 
L 173.114811 108.253333 
L 169.92009 108.253333 
z
" clip-path="url(#p897e5d5e4b)" style="fill: #1f77b4; opacity: 0.5"/>
   </g>
   <g id="patch_131">
    <path d="M 173.114811 170.44 
L 176.309532 170.44 
L 176.309532 147.12 
L 173.114811 147.12 
z
" clip-path="url(#p897e5d5e4b)" style="fill: #1f77b4; opacity: 0.5"/>
   </g>
   <g id="patch_132">
    <path d="M 176.309532 170.44 
L 179.504254 170.44 
L 179.504254 100.48 
L 176.309532 100.48 
z
" clip-path="url(#p897e5d5e4b)" style="fill: #1f77b4; opacity: 0.5"/>
   </g>
   <g id="patch_133">
    <path d="M 179.504254 170.44 
L 182.698975 170.44 
L 182.698975 131.573333 
L 179.504254 131.573333 
z
" clip-path="url(#p897e5d5e4b)" style="fill: #1f77b4; opacity: 0.5"/>
   </g>
   <g id="patch_134">
    <path d="M 182.698975 170.44 
L 185.893696 170.44 
L 185.893696 131.573333 
L 182.698975 131.573333 
z
" clip-path="url(#p897e5d5e4b)" style="fill: #1f77b4; opacity: 0.5"/>
   </g>
   <g id="patch_135">
    <path d="M 185.893696 170.44 
L 189.088418 170.44 
L 189.088418 147.12 
L 185.893696 147.12 
z
" clip-path="url(#p897e5d5e4b)" style="fill: #1f77b4; opacity: 0.5"/>
   </g>
   <g id="patch_136">
    <path d="M 189.088418 170.44 
L 192.283139 170.44 
L 192.283139 69.386667 
L 189.088418 69.386667 
z
" clip-path="url(#p897e5d5e4b)" style="fill: #1f77b4; opacity: 0.5"/>
   </g>
   <g id="patch_137">
    <path d="M 192.283139 170.44 
L 195.47786 170.44 
L 195.47786 100.48 
L 192.283139 100.48 
z
" clip-path="url(#p897e5d5e4b)" style="fill: #1f77b4; opacity: 0.5"/>
   </g>
   <g id="patch_138">
    <path d="M 195.47786 170.44 
L 198.672582 170.44 
L 198.672582 108.253333 
L 195.47786 108.253333 
z
" clip-path="url(#p897e5d5e4b)" style="fill: #1f77b4; opacity: 0.5"/>
   </g>
   <g id="patch_139">
    <path d="M 198.672582 170.44 
L 201.867303 170.44 
L 201.867303 77.16 
L 198.672582 77.16 
z
" clip-path="url(#p897e5d5e4b)" style="fill: #1f77b4; opacity: 0.5"/>
   </g>
   <g id="patch_140">
    <path d="M 201.867303 170.44 
L 205.062024 170.44 
L 205.062024 69.386667 
L 201.867303 69.386667 
z
" clip-path="url(#p897e5d5e4b)" style="fill: #1f77b4; opacity: 0.5"/>
   </g>
   <g id="patch_141">
    <path d="M 205.062024 170.44 
L 208.256746 170.44 
L 208.256746 92.706667 
L 205.062024 92.706667 
z
" clip-path="url(#p897e5d5e4b)" style="fill: #1f77b4; opacity: 0.5"/>
   </g>
   <g id="patch_142">
    <path d="M 208.256746 170.44 
L 211.451467 170.44 
L 211.451467 69.386667 
L 208.256746 69.386667 
z
" clip-path="url(#p897e5d5e4b)" style="fill: #1f77b4; opacity: 0.5"/>
   </g>
   <g id="patch_143">
    <path d="M 211.451467 170.44 
L 214.646188 170.44 
L 214.646188 61.613333 
L 211.451467 61.613333 
z
" clip-path="url(#p897e5d5e4b)" style="fill: #1f77b4; opacity: 0.5"/>
   </g>
   <g id="patch_144">
    <path d="M 214.646188 170.44 
L 217.84091 170.44 
L 217.84091 77.16 
L 214.646188 77.16 
z
" clip-path="url(#p897e5d5e4b)" style="fill: #1f77b4; opacity: 0.5"/>
   </g>
   <g id="patch_145">
    <path d="M 217.84091 170.44 
L 221.035631 170.44 
L 221.035631 53.84 
L 217.84091 53.84 
z
" clip-path="url(#p897e5d5e4b)" style="fill: #1f77b4; opacity: 0.5"/>
   </g>
   <g id="patch_146">
    <path d="M 221.035631 170.44 
L 224.230352 170.44 
L 224.230352 69.386667 
L 221.035631 69.386667 
z
" clip-path="url(#p897e5d5e4b)" style="fill: #1f77b4; opacity: 0.5"/>
   </g>
   <g id="patch_147">
    <path d="M 224.230352 170.44 
L 227.425074 170.44 
L 227.425074 61.613333 
L 224.230352 61.613333 
z
" clip-path="url(#p897e5d5e4b)" style="fill: #1f77b4; opacity: 0.5"/>
   </g>
   <g id="patch_148">
    <path d="M 227.425074 170.44 
L 230.619795 170.44 
L 230.619795 61.613333 
L 227.425074 61.613333 
z
" clip-path="url(#p897e5d5e4b)" style="fill: #1f77b4; opacity: 0.5"/>
   </g>
   <g id="patch_149">
    <path d="M 230.619795 170.44 
L 233.814517 170.44 
L 233.814517 53.84 
L 230.619795 53.84 
z
" clip-path="url(#p897e5d5e4b)" style="fill: #1f77b4; opacity: 0.5"/>
   </g>
   <g id="patch_150">
    <path d="M 233.814517 170.44 
L 237.009238 170.44 
L 237.009238 84.933333 
L 233.814517 84.933333 
z
" clip-path="url(#p897e5d5e4b)" style="fill: #1f77b4; opacity: 0.5"/>
   </g>
   <g id="patch_151">
    <path d="M 237.009238 170.44 
L 240.203959 170.44 
L 240.203959 22.746667 
L 237.009238 22.746667 
z
" clip-path="url(#p897e5d5e4b)" style="fill: #1f77b4; opacity: 0.5"/>
   </g>
   <g id="patch_152">
    <path d="M 240.203959 170.44 
L 243.398681 170.44 
L 243.398681 14.973333 
L 240.203959 14.973333 
z
" clip-path="url(#p897e5d5e4b)" style="fill: #1f77b4; opacity: 0.5"/>
   </g>
   <g id="patch_153">
    <path d="M 243.398681 170.44 
L 246.593402 170.44 
L 246.593402 38.293333 
L 243.398681 38.293333 
z
" clip-path="url(#p897e5d5e4b)" style="fill: #1f77b4; opacity: 0.5"/>
   </g>
   <g id="patch_154">
    <path d="M 246.593402 170.44 
L 249.788123 170.44 
L 249.788123 69.386667 
L 246.593402 69.386667 
z
" clip-path="url(#p897e5d5e4b)" style="fill: #1f77b4; opacity: 0.5"/>
   </g>
   <g id="patch_155">
    <path d="M 249.788123 170.44 
L 252.982845 170.44 
L 252.982845 84.933333 
L 249.788123 84.933333 
z
" clip-path="url(#p897e5d5e4b)" style="fill: #1f77b4; opacity: 0.5"/>
   </g>
   <g id="patch_156">
    <path d="M 252.982845 170.44 
L 256.177566 170.44 
L 256.177566 38.293333 
L 252.982845 38.293333 
z
" clip-path="url(#p897e5d5e4b)" style="fill: #1f77b4; opacity: 0.5"/>
   </g>
   <g id="patch_157">
    <path d="M 256.177566 170.44 
L 259.372287 170.44 
L 259.372287 38.293333 
L 256.177566 38.293333 
z
" clip-path="url(#p897e5d5e4b)" style="fill: #1f77b4; opacity: 0.5"/>
   </g>
   <g id="patch_158">
    <path d="M 259.372287 170.44 
L 262.567009 170.44 
L 262.567009 61.613333 
L 259.372287 61.613333 
z
" clip-path="url(#p897e5d5e4b)" style="fill: #1f77b4; opacity: 0.5"/>
   </g>
   <g id="patch_159">
    <path d="M 262.567009 170.44 
L 265.76173 170.44 
L 265.76173 46.066667 
L 262.567009 46.066667 
z
" clip-path="url(#p897e5d5e4b)" style="fill: #1f77b4; opacity: 0.5"/>
   </g>
   <g id="patch_160">
    <path d="M 265.76173 170.44 
L 268.956451 170.44 
L 268.956451 77.16 
L 265.76173 77.16 
z
" clip-path="url(#p897e5d5e4b)" style="fill: #1f77b4; opacity: 0.5"/>
   </g>
   <g id="patch_161">
    <path d="M 268.956451 170.44 
L 272.151173 170.44 
L 272.151173 38.293333 
L 268.956451 38.293333 
z
" clip-path="url(#p897e5d5e4b)" style="fill: #1f77b4; opacity: 0.5"/>
   </g>
   <g id="patch_162">
    <path d="M 272.151173 170.44 
L 275.345894 170.44 
L 275.345894 46.066667 
L 272.151173 46.066667 
z
" clip-path="url(#p897e5d5e4b)" style="fill: #1f77b4; opacity: 0.5"/>
   </g>
   <g id="patch_163">
    <path d="M 275.345894 170.44 
L 278.540615 170.44 
L 278.540615 77.16 
L 275.345894 77.16 
z
" clip-path="url(#p897e5d5e4b)" style="fill: #1f77b4; opacity: 0.5"/>
   </g>
   <g id="patch_164">
    <path d="M 278.540615 170.44 
L 281.735337 170.44 
L 281.735337 84.933333 
L 278.540615 84.933333 
z
" clip-path="url(#p897e5d5e4b)" style="fill: #1f77b4; opacity: 0.5"/>
   </g>
   <g id="patch_165">
    <path d="M 281.735337 170.44 
L 284.930058 170.44 
L 284.930058 38.293333 
L 281.735337 38.293333 
z
" clip-path="url(#p897e5d5e4b)" style="fill: #1f77b4; opacity: 0.5"/>
   </g>
   <g id="patch_166">
    <path d="M 284.930058 170.44 
L 288.124779 170.44 
L 288.124779 92.706667 
L 284.930058 92.706667 
z
" clip-path="url(#p897e5d5e4b)" style="fill: #1f77b4; opacity: 0.5"/>
   </g>
   <g id="patch_167">
    <path d="M 288.124779 170.44 
L 291.319501 170.44 
L 291.319501 100.48 
L 288.124779 100.48 
z
" clip-path="url(#p897e5d5e4b)" style="fill: #1f77b4; opacity: 0.5"/>
   </g>
   <g id="patch_168">
    <path d="M 291.319501 170.44 
L 294.514222 170.44 
L 294.514222 46.066667 
L 291.319501 46.066667 
z
" clip-path="url(#p897e5d5e4b)" style="fill: #1f77b4; opacity: 0.5"/>
   </g>
   <g id="patch_169">
    <path d="M 294.514222 170.44 
L 297.708943 170.44 
L 297.708943 131.573333 
L 294.514222 131.573333 
z
" clip-path="url(#p897e5d5e4b)" style="fill: #1f77b4; opacity: 0.5"/>
   </g>
   <g id="patch_170">
    <path d="M 297.708943 170.44 
L 300.903665 170.44 
L 300.903665 46.066667 
L 297.708943 46.066667 
z
" clip-path="url(#p897e5d5e4b)" style="fill: #1f77b4; opacity: 0.5"/>
   </g>
   <g id="patch_171">
    <path d="M 300.903665 170.44 
L 304.098386 170.44 
L 304.098386 92.706667 
L 300.903665 92.706667 
z
" clip-path="url(#p897e5d5e4b)" style="fill: #1f77b4; opacity: 0.5"/>
   </g>
   <g id="patch_172">
    <path d="M 304.098386 170.44 
L 307.293107 170.44 
L 307.293107 84.933333 
L 304.098386 84.933333 
z
" clip-path="url(#p897e5d5e4b)" style="fill: #1f77b4; opacity: 0.5"/>
   </g>
   <g id="patch_173">
    <path d="M 307.293107 170.44 
L 310.487829 170.44 
L 310.487829 92.706667 
L 307.293107 92.706667 
z
" clip-path="url(#p897e5d5e4b)" style="fill: #1f77b4; opacity: 0.5"/>
   </g>
   <g id="patch_174">
    <path d="M 310.487829 170.44 
L 313.68255 170.44 
L 313.68255 100.48 
L 310.487829 100.48 
z
" clip-path="url(#p897e5d5e4b)" style="fill: #1f77b4; opacity: 0.5"/>
   </g>
   <g id="patch_175">
    <path d="M 313.68255 170.44 
L 316.877271 170.44 
L 316.877271 84.933333 
L 313.68255 84.933333 
z
" clip-path="url(#p897e5d5e4b)" style="fill: #1f77b4; opacity: 0.5"/>
   </g>
   <g id="patch_176">
    <path d="M 316.877271 170.44 
L 320.071993 170.44 
L 320.071993 108.253333 
L 316.877271 108.253333 
z
" clip-path="url(#p897e5d5e4b)" style="fill: #1f77b4; opacity: 0.5"/>
   </g>
   <g id="patch_177">
    <path d="M 320.071993 170.44 
L 323.266714 170.44 
L 323.266714 116.026667 
L 320.071993 116.026667 
z
" clip-path="url(#p897e5d5e4b)" style="fill: #1f77b4; opacity: 0.5"/>
   </g>
   <g id="patch_178">
    <path d="M 323.266714 170.44 
L 326.461435 170.44 
L 326.461435 116.026667 
L 323.266714 116.026667 
z
" clip-path="url(#p897e5d5e4b)" style="fill: #1f77b4; opacity: 0.5"/>
   </g>
   <g id="patch_179">
    <path d="M 326.461435 170.44 
L 329.656157 170.44 
L 329.656157 139.346667 
L 326.461435 139.346667 
z
" clip-path="url(#p897e5d5e4b)" style="fill: #1f77b4; opacity: 0.5"/>
   </g>
   <g id="patch_180">
    <path d="M 329.656157 170.44 
L 332.850878 170.44 
L 332.850878 84.933333 
L 329.656157 84.933333 
z
" clip-path="url(#p897e5d5e4b)" style="fill: #1f77b4; opacity: 0.5"/>
   </g>
   <g id="patch_181">
    <path d="M 332.850878 170.44 
L 336.045599 170.44 
L 336.045599 84.933333 
L 332.850878 84.933333 
z
" clip-path="url(#p897e5d5e4b)" style="fill: #1f77b4; opacity: 0.5"/>
   </g>
   <g id="patch_182">
    <path d="M 336.045599 170.44 
L 339.240321 170.44 
L 339.240321 69.386667 
L 336.045599 69.386667 
z
" clip-path="url(#p897e5d5e4b)" style="fill: #1f77b4; opacity: 0.5"/>
   </g>
   <g id="patch_183">
    <path d="M 339.240321 170.44 
L 342.435042 170.44 
L 342.435042 139.346667 
L 339.240321 139.346667 
z
" clip-path="url(#p897e5d5e4b)" style="fill: #1f77b4; opacity: 0.5"/>
   </g>
   <g id="patch_184">
    <path d="M 342.435042 170.44 
L 345.629763 170.44 
L 345.629763 100.48 
L 342.435042 100.48 
z
" clip-path="url(#p897e5d5e4b)" style="fill: #1f77b4; opacity: 0.5"/>
   </g>
   <g id="patch_185">
    <path d="M 345.629763 170.44 
L 348.824485 170.44 
L 348.824485 84.933333 
L 345.629763 84.933333 
z
" clip-path="url(#p897e5d5e4b)" style="fill: #1f77b4; opacity: 0.5"/>
   </g>
   <g id="patch_186">
    <path d="M 348.824485 170.44 
L 352.019206 170.44 
L 352.019206 108.253333 
L 348.824485 108.253333 
z
" clip-path="url(#p897e5d5e4b)" style="fill: #1f77b4; opacity: 0.5"/>
   </g>
   <g id="patch_187">
    <path d="M 352.019206 170.44 
L 355.213927 170.44 
L 355.213927 116.026667 
L 352.019206 116.026667 
z
" clip-path="url(#p897e5d5e4b)" style="fill: #1f77b4; opacity: 0.5"/>
   </g>
   <g id="patch_188">
    <path d="M 355.213927 170.44 
L 358.408649 170.44 
L 358.408649 116.026667 
L 355.213927 116.026667 
z
" clip-path="url(#p897e5d5e4b)" style="fill: #1f77b4; opacity: 0.5"/>
   </g>
   <g id="patch_189">
    <path d="M 358.408649 170.44 
L 361.60337 170.44 
L 361.60337 53.84 
L 358.408649 53.84 
z
" clip-path="url(#p897e5d5e4b)" style="fill: #1f77b4; opacity: 0.5"/>
   </g>
   <g id="patch_190">
    <path d="M 361.60337 170.44 
L 364.798091 170.44 
L 364.798091 131.573333 
L 361.60337 131.573333 
z
" clip-path="url(#p897e5d5e4b)" style="fill: #1f77b4; opacity: 0.5"/>
   </g>
   <g id="patch_191">
    <path d="M 364.798091 170.44 
L 367.992813 170.44 
L 367.992813 108.253333 
L 364.798091 108.253333 
z
" clip-path="url(#p897e5d5e4b)" style="fill: #1f77b4; opacity: 0.5"/>
   </g>
   <g id="patch_192">
    <path d="M 367.992813 170.44 
L 371.187534 170.44 
L 371.187534 84.933333 
L 367.992813 84.933333 
z
" clip-path="url(#p897e5d5e4b)" style="fill: #1f77b4; opacity: 0.5"/>
   </g>
   <g id="patch_193">
    <path d="M 371.187534 170.44 
L 374.382255 170.44 
L 374.382255 108.253333 
L 371.187534 108.253333 
z
" clip-path="url(#p897e5d5e4b)" style="fill: #1f77b4; opacity: 0.5"/>
   </g>
   <g id="patch_194">
    <path d="M 374.382255 170.44 
L 377.576977 170.44 
L 377.576977 116.026667 
L 374.382255 116.026667 
z
" clip-path="url(#p897e5d5e4b)" style="fill: #1f77b4; opacity: 0.5"/>
   </g>
   <g id="patch_195">
    <path d="M 377.576977 170.44 
L 380.771698 170.44 
L 380.771698 131.573333 
L 377.576977 131.573333 
z
" clip-path="url(#p897e5d5e4b)" style="fill: #1f77b4; opacity: 0.5"/>
   </g>
   <g id="patch_196">
    <path d="M 380.771698 170.44 
L 383.966419 170.44 
L 383.966419 147.12 
L 380.771698 147.12 
z
" clip-path="url(#p897e5d5e4b)" style="fill: #1f77b4; opacity: 0.5"/>
   </g>
   <g id="patch_197">
    <path d="M 383.966419 170.44 
L 387.161141 170.44 
L 387.161141 123.8 
L 383.966419 123.8 
z
" clip-path="url(#p897e5d5e4b)" style="fill: #1f77b4; opacity: 0.5"/>
   </g>
   <g id="patch_198">
    <path d="M 387.161141 170.44 
L 390.355862 170.44 
L 390.355862 116.026667 
L 387.161141 116.026667 
z
" clip-path="url(#p897e5d5e4b)" style="fill: #1f77b4; opacity: 0.5"/>
   </g>
   <g id="patch_199">
    <path d="M 390.355862 170.44 
L 393.550583 170.44 
L 393.550583 139.346667 
L 390.355862 139.346667 
z
" clip-path="url(#p897e5d5e4b)" style="fill: #1f77b4; opacity: 0.5"/>
   </g>
   <g id="patch_200">
    <path d="M 393.550583 170.44 
L 396.745305 170.44 
L 396.745305 116.026667 
L 393.550583 116.026667 
z
" clip-path="url(#p897e5d5e4b)" style="fill: #1f77b4; opacity: 0.5"/>
   </g>
   <g id="patch_201">
    <path d="M 396.745305 170.44 
L 399.940026 170.44 
L 399.940026 53.84 
L 396.745305 53.84 
z
" clip-path="url(#p897e5d5e4b)" style="fill: #1f77b4; opacity: 0.5"/>
   </g>
   <g id="patch_202">
    <path d="M 399.940026 170.44 
L 403.134747 170.44 
L 403.134747 84.933333 
L 399.940026 84.933333 
z
" clip-path="url(#p897e5d5e4b)" style="fill: #1f77b4; opacity: 0.5"/>
   </g>
   <g id="matplotlib.axis_1">
    <g id="xtick_1">
     <g id="line2d_1">
      <defs>
       <path id="m55bc83dafb" d="M 0 0 
L 0 3.5 
" style="stroke: #000000; stroke-width: 0.8"/>
      </defs>
      <g>
       <use xlink:href="#m55bc83dafb" x="210.089813" y="170.44" style="stroke: #000000; stroke-width: 0.8"/>
      </g>
     </g>
     <g id="text_1">
      <!-- −0.5 -->
      <g transform="translate(197.948407 185.038437) scale(0.1 -0.1)">
       <defs>
        <path id="DejaVuSans-2212" d="M 678 2272 
L 4684 2272 
L 4684 1741 
L 678 1741 
L 678 2272 
z
" transform="scale(0.015625)"/>
        <path id="DejaVuSans-30" d="M 2034 4250 
Q 1547 4250 1301 3770 
Q 1056 3291 1056 2328 
Q 1056 1369 1301 889 
Q 1547 409 2034 409 
Q 2525 409 2770 889 
Q 3016 1369 3016 2328 
Q 3016 3291 2770 3770 
Q 2525 4250 2034 4250 
z
M 2034 4750 
Q 2819 4750 3233 4129 
Q 3647 3509 3647 2328 
Q 3647 1150 3233 529 
Q 2819 -91 2034 -91 
Q 1250 -91 836 529 
Q 422 1150 422 2328 
Q 422 3509 836 4129 
Q 1250 4750 2034 4750 
z
" transform="scale(0.015625)"/>
        <path id="DejaVuSans-2e" d="M 684 794 
L 1344 794 
L 1344 0 
L 684 0 
L 684 794 
z
" transform="scale(0.015625)"/>
        <path id="DejaVuSans-35" d="M 691 4666 
L 3169 4666 
L 3169 4134 
L 1269 4134 
L 1269 2991 
Q 1406 3038 1543 3061 
Q 1681 3084 1819 3084 
Q 2600 3084 3056 2656 
Q 3513 2228 3513 1497 
Q 3513 744 3044 326 
Q 2575 -91 1722 -91 
Q 1428 -91 1123 -41 
Q 819 9 494 109 
L 494 744 
Q 775 591 1075 516 
Q 1375 441 1709 441 
Q 2250 441 2565 725 
Q 2881 1009 2881 1497 
Q 2881 1984 2565 2268 
Q 2250 2553 1709 2553 
Q 1456 2553 1204 2497 
Q 953 2441 691 2322 
L 691 4666 
z
" transform="scale(0.015625)"/>
       </defs>
       <use xlink:href="#DejaVuSans-2212"/>
       <use xlink:href="#DejaVuSans-30" transform="translate(83.789062 0)"/>
       <use xlink:href="#DejaVuSans-2e" transform="translate(147.412109 0)"/>
       <use xlink:href="#DejaVuSans-35" transform="translate(179.199219 0)"/>
      </g>
     </g>
    </g>
    <g id="xtick_2">
     <g id="line2d_2">
      <g>
       <use xlink:href="#m55bc83dafb" x="403.776615" y="170.44" style="stroke: #000000; stroke-width: 0.8"/>
      </g>
     </g>
     <g id="text_2">
      <!-- 0.0 -->
      <g transform="translate(395.825053 185.038437) scale(0.1 -0.1)">
       <use xlink:href="#DejaVuSans-30"/>
       <use xlink:href="#DejaVuSans-2e" transform="translate(63.623047 0)"/>
       <use xlink:href="#DejaVuSans-30" transform="translate(95.410156 0)"/>
      </g>
     </g>
    </g>
    <g id="xtick_3">
     <g id="line2d_3">
      <g>
       <use xlink:href="#m55bc83dafb" x="597.463417" y="170.44" style="stroke: #000000; stroke-width: 0.8"/>
      </g>
     </g>
     <g id="text_3">
      <!-- 0.5 -->
      <g transform="translate(589.511855 185.038437) scale(0.1 -0.1)">
       <use xlink:href="#DejaVuSans-30"/>
       <use xlink:href="#DejaVuSans-2e" transform="translate(63.623047 0)"/>
       <use xlink:href="#DejaVuSans-35" transform="translate(95.410156 0)"/>
      </g>
     </g>
    </g>
    <g id="xtick_4">
     <g id="line2d_4">
      <g>
       <use xlink:href="#m55bc83dafb" x="791.15022" y="170.44" style="stroke: #000000; stroke-width: 0.8"/>
      </g>
     </g>
     <g id="text_4">
      <!-- 1.0 -->
      <g transform="translate(783.198657 185.038437) scale(0.1 -0.1)">
       <defs>
        <path id="DejaVuSans-31" d="M 794 531 
L 1825 531 
L 1825 4091 
L 703 3866 
L 703 4441 
L 1819 4666 
L 2450 4666 
L 2450 531 
L 3481 531 
L 3481 0 
L 794 0 
L 794 531 
z
" transform="scale(0.015625)"/>
       </defs>
       <use xlink:href="#DejaVuSans-31"/>
       <use xlink:href="#DejaVuSans-2e" transform="translate(63.623047 0)"/>
       <use xlink:href="#DejaVuSans-30" transform="translate(95.410156 0)"/>
      </g>
     </g>
    </g>
    <g id="text_5">
     <!-- E1 -->
     <g transform="translate(476.135625 198.716563) scale(0.1 -0.1)">
      <defs>
       <path id="DejaVuSans-45" d="M 628 4666 
L 3578 4666 
L 3578 4134 
L 1259 4134 
L 1259 2753 
L 3481 2753 
L 3481 2222 
L 1259 2222 
L 1259 531 
L 3634 531 
L 3634 0 
L 628 0 
L 628 4666 
z
" transform="scale(0.015625)"/>
      </defs>
      <use xlink:href="#DejaVuSans-45"/>
      <use xlink:href="#DejaVuSans-31" transform="translate(63.183594 0)"/>
     </g>
    </g>
   </g>
   <g id="matplotlib.axis_2">
    <g id="ytick_1">
     <g id="line2d_5">
      <defs>
       <path id="m470ee7518d" d="M 0 0 
L -3.5 0 
" style="stroke: #000000; stroke-width: 0.8"/>
      </defs>
      <g>
       <use xlink:href="#m470ee7518d" x="43.78125" y="170.44" style="stroke: #000000; stroke-width: 0.8"/>
      </g>
     </g>
     <g id="text_6">
      <!-- 0.0 -->
      <g transform="translate(20.878125 174.239219) scale(0.1 -0.1)">
       <use xlink:href="#DejaVuSans-30"/>
       <use xlink:href="#DejaVuSans-2e" transform="translate(63.623047 0)"/>
       <use xlink:href="#DejaVuSans-30" transform="translate(95.410156 0)"/>
      </g>
     </g>
    </g>
    <g id="ytick_2">
     <g id="line2d_6">
      <g>
       <use xlink:href="#m470ee7518d" x="43.78125" y="144.15584" style="stroke: #000000; stroke-width: 0.8"/>
      </g>
     </g>
     <g id="text_7">
      <!-- 0.5 -->
      <g transform="translate(20.878125 147.955059) scale(0.1 -0.1)">
       <use xlink:href="#DejaVuSans-30"/>
       <use xlink:href="#DejaVuSans-2e" transform="translate(63.623047 0)"/>
       <use xlink:href="#DejaVuSans-35" transform="translate(95.410156 0)"/>
      </g>
     </g>
    </g>
    <g id="ytick_3">
     <g id="line2d_7">
      <g>
       <use xlink:href="#m470ee7518d" x="43.78125" y="117.87168" style="stroke: #000000; stroke-width: 0.8"/>
      </g>
     </g>
     <g id="text_8">
      <!-- 1.0 -->
      <g transform="translate(20.878125 121.670898) scale(0.1 -0.1)">
       <use xlink:href="#DejaVuSans-31"/>
       <use xlink:href="#DejaVuSans-2e" transform="translate(63.623047 0)"/>
       <use xlink:href="#DejaVuSans-30" transform="translate(95.410156 0)"/>
      </g>
     </g>
    </g>
    <g id="ytick_4">
     <g id="line2d_8">
      <g>
       <use xlink:href="#m470ee7518d" x="43.78125" y="91.587519" style="stroke: #000000; stroke-width: 0.8"/>
      </g>
     </g>
     <g id="text_9">
      <!-- 1.5 -->
      <g transform="translate(20.878125 95.386738) scale(0.1 -0.1)">
       <use xlink:href="#DejaVuSans-31"/>
       <use xlink:href="#DejaVuSans-2e" transform="translate(63.623047 0)"/>
       <use xlink:href="#DejaVuSans-35" transform="translate(95.410156 0)"/>
      </g>
     </g>
    </g>
    <g id="ytick_5">
     <g id="line2d_9">
      <g>
       <use xlink:href="#m470ee7518d" x="43.78125" y="65.303359" style="stroke: #000000; stroke-width: 0.8"/>
      </g>
     </g>
     <g id="text_10">
      <!-- 2.0 -->
      <g transform="translate(20.878125 69.102578) scale(0.1 -0.1)">
       <defs>
        <path id="DejaVuSans-32" d="M 1228 531 
L 3431 531 
L 3431 0 
L 469 0 
L 469 531 
Q 828 903 1448 1529 
Q 2069 2156 2228 2338 
Q 2531 2678 2651 2914 
Q 2772 3150 2772 3378 
Q 2772 3750 2511 3984 
Q 2250 4219 1831 4219 
Q 1534 4219 1204 4116 
Q 875 4013 500 3803 
L 500 4441 
Q 881 4594 1212 4672 
Q 1544 4750 1819 4750 
Q 2544 4750 2975 4387 
Q 3406 4025 3406 3419 
Q 3406 3131 3298 2873 
Q 3191 2616 2906 2266 
Q 2828 2175 2409 1742 
Q 1991 1309 1228 531 
z
" transform="scale(0.015625)"/>
       </defs>
       <use xlink:href="#DejaVuSans-32"/>
       <use xlink:href="#DejaVuSans-2e" transform="translate(63.623047 0)"/>
       <use xlink:href="#DejaVuSans-30" transform="translate(95.410156 0)"/>
      </g>
     </g>
    </g>
    <g id="ytick_6">
     <g id="line2d_10">
      <g>
       <use xlink:href="#m470ee7518d" x="43.78125" y="39.019199" style="stroke: #000000; stroke-width: 0.8"/>
      </g>
     </g>
     <g id="text_11">
      <!-- 2.5 -->
      <g transform="translate(20.878125 42.818418) scale(0.1 -0.1)">
       <use xlink:href="#DejaVuSans-32"/>
       <use xlink:href="#DejaVuSans-2e" transform="translate(63.623047 0)"/>
       <use xlink:href="#DejaVuSans-35" transform="translate(95.410156 0)"/>
      </g>
     </g>
    </g>
    <g id="ytick_7">
     <g id="line2d_11">
      <g>
       <use xlink:href="#m470ee7518d" x="43.78125" y="12.735039" style="stroke: #000000; stroke-width: 0.8"/>
      </g>
     </g>
     <g id="text_12">
      <!-- 3.0 -->
      <g transform="translate(20.878125 16.534257) scale(0.1 -0.1)">
       <defs>
        <path id="DejaVuSans-33" d="M 2597 2516 
Q 3050 2419 3304 2112 
Q 3559 1806 3559 1356 
Q 3559 666 3084 287 
Q 2609 -91 1734 -91 
Q 1441 -91 1130 -33 
Q 819 25 488 141 
L 488 750 
Q 750 597 1062 519 
Q 1375 441 1716 441 
Q 2309 441 2620 675 
Q 2931 909 2931 1356 
Q 2931 1769 2642 2001 
Q 2353 2234 1838 2234 
L 1294 2234 
L 1294 2753 
L 1863 2753 
Q 2328 2753 2575 2939 
Q 2822 3125 2822 3475 
Q 2822 3834 2567 4026 
Q 2313 4219 1838 4219 
Q 1578 4219 1281 4162 
Q 984 4106 628 3988 
L 628 4550 
Q 988 4650 1302 4700 
Q 1616 4750 1894 4750 
Q 2613 4750 3031 4423 
Q 3450 4097 3450 3541 
Q 3450 3153 3228 2886 
Q 3006 2619 2597 2516 
z
" transform="scale(0.015625)"/>
       </defs>
       <use xlink:href="#DejaVuSans-33"/>
       <use xlink:href="#DejaVuSans-2e" transform="translate(63.623047 0)"/>
       <use xlink:href="#DejaVuSans-30" transform="translate(95.410156 0)"/>
      </g>
     </g>
    </g>
    <g id="text_13">
     <!-- Count -->
     <g transform="translate(14.798438 103.668438) rotate(-90) scale(0.1 -0.1)">
      <defs>
       <path id="DejaVuSans-43" d="M 4122 4306 
L 4122 3641 
Q 3803 3938 3442 4084 
Q 3081 4231 2675 4231 
Q 1875 4231 1450 3742 
Q 1025 3253 1025 2328 
Q 1025 1406 1450 917 
Q 1875 428 2675 428 
Q 3081 428 3442 575 
Q 3803 722 4122 1019 
L 4122 359 
Q 3791 134 3420 21 
Q 3050 -91 2638 -91 
Q 1578 -91 968 557 
Q 359 1206 359 2328 
Q 359 3453 968 4101 
Q 1578 4750 2638 4750 
Q 3056 4750 3426 4639 
Q 3797 4528 4122 4306 
z
" transform="scale(0.015625)"/>
       <path id="DejaVuSans-6f" d="M 1959 3097 
Q 1497 3097 1228 2736 
Q 959 2375 959 1747 
Q 959 1119 1226 758 
Q 1494 397 1959 397 
Q 2419 397 2687 759 
Q 2956 1122 2956 1747 
Q 2956 2369 2687 2733 
Q 2419 3097 1959 3097 
z
M 1959 3584 
Q 2709 3584 3137 3096 
Q 3566 2609 3566 1747 
Q 3566 888 3137 398 
Q 2709 -91 1959 -91 
Q 1206 -91 779 398 
Q 353 888 353 1747 
Q 353 2609 779 3096 
Q 1206 3584 1959 3584 
z
" transform="scale(0.015625)"/>
       <path id="DejaVuSans-75" d="M 544 1381 
L 544 3500 
L 1119 3500 
L 1119 1403 
Q 1119 906 1312 657 
Q 1506 409 1894 409 
Q 2359 409 2629 706 
Q 2900 1003 2900 1516 
L 2900 3500 
L 3475 3500 
L 3475 0 
L 2900 0 
L 2900 538 
Q 2691 219 2414 64 
Q 2138 -91 1772 -91 
Q 1169 -91 856 284 
Q 544 659 544 1381 
z
M 1991 3584 
L 1991 3584 
z
" transform="scale(0.015625)"/>
       <path id="DejaVuSans-6e" d="M 3513 2113 
L 3513 0 
L 2938 0 
L 2938 2094 
Q 2938 2591 2744 2837 
Q 2550 3084 2163 3084 
Q 1697 3084 1428 2787 
Q 1159 2491 1159 1978 
L 1159 0 
L 581 0 
L 581 3500 
L 1159 3500 
L 1159 2956 
Q 1366 3272 1645 3428 
Q 1925 3584 2291 3584 
Q 2894 3584 3203 3211 
Q 3513 2838 3513 2113 
z
" transform="scale(0.015625)"/>
       <path id="DejaVuSans-74" d="M 1172 4494 
L 1172 3500 
L 2356 3500 
L 2356 3053 
L 1172 3053 
L 1172 1153 
Q 1172 725 1289 603 
Q 1406 481 1766 481 
L 2356 481 
L 2356 0 
L 1766 0 
Q 1100 0 847 248 
Q 594 497 594 1153 
L 594 3053 
L 172 3053 
L 172 3500 
L 594 3500 
L 594 4494 
L 1172 4494 
z
" transform="scale(0.015625)"/>
      </defs>
      <use xlink:href="#DejaVuSans-43"/>
      <use xlink:href="#DejaVuSans-6f" transform="translate(69.824219 0)"/>
      <use xlink:href="#DejaVuSans-75" transform="translate(131.005859 0)"/>
      <use xlink:href="#DejaVuSans-6e" transform="translate(194.384766 0)"/>
      <use xlink:href="#DejaVuSans-74" transform="translate(257.763672 0)"/>
     </g>
    </g>
   </g>
   <g id="line2d_12">
    <path d="M 573.468052 170.44 
L 573.468052 7.2 
" clip-path="url(#p897e5d5e4b)" style="fill: none; stroke-dasharray: 5.55,2.4; stroke-dashoffset: 0; stroke: #d62728; stroke-width: 1.5"/>
   </g>
   <g id="line2d_13">
    <path d="M 271.7484 170.44 
L 271.7484 7.2 
" clip-path="url(#p897e5d5e4b)" style="fill: none; stroke-dasharray: 5.55,2.4; stroke-dashoffset: 0; stroke: #1f77b4; stroke-width: 1.5"/>
   </g>
   <g id="patch_203">
    <path d="M 43.78125 170.44 
L 43.78125 7.2 
" style="fill: none; stroke: #000000; stroke-width: 0.8; stroke-linejoin: miter; stroke-linecap: square"/>
   </g>
   <g id="patch_204">
    <path d="M 921.17125 170.44 
L 921.17125 7.2 
" style="fill: none; stroke: #000000; stroke-width: 0.8; stroke-linejoin: miter; stroke-linecap: square"/>
   </g>
   <g id="patch_205">
    <path d="M 43.78125 170.44 
L 921.17125 170.44 
" style="fill: none; stroke: #000000; stroke-width: 0.8; stroke-linejoin: miter; stroke-linecap: square"/>
   </g>
   <g id="patch_206">
    <path d="M 43.78125 7.2 
L 921.17125 7.2 
" style="fill: none; stroke: #000000; stroke-width: 0.8; stroke-linejoin: miter; stroke-linecap: square"/>
   </g>
   <g id="legend_1">
    <g id="patch_207">
     <path d="M 50.78125 73.9125 
L 120.067188 73.9125 
Q 122.067188 73.9125 122.067188 71.9125 
L 122.067188 14.2 
Q 122.067188 12.2 120.067188 12.2 
L 50.78125 12.2 
Q 48.78125 12.2 48.78125 14.2 
L 48.78125 71.9125 
Q 48.78125 73.9125 50.78125 73.9125 
z
" style="fill: #ffffff; opacity: 0.8; stroke: #cccccc; stroke-linejoin: miter"/>
    </g>
    <g id="patch_208">
     <path d="M 52.78125 23.798438 
L 72.78125 23.798438 
L 72.78125 16.798438 
L 52.78125 16.798438 
z
" style="fill: #d62728; opacity: 0.5"/>
    </g>
    <g id="text_14">
     <!-- A -->
     <g transform="translate(80.78125 23.798438) scale(0.1 -0.1)">
      <defs>
       <path id="DejaVuSans-41" d="M 2188 4044 
L 1331 1722 
L 3047 1722 
L 2188 4044 
z
M 1831 4666 
L 2547 4666 
L 4325 0 
L 3669 0 
L 3244 1197 
L 1141 1197 
L 716 0 
L 50 0 
L 1831 4666 
z
" transform="scale(0.015625)"/>
      </defs>
      <use xlink:href="#DejaVuSans-41"/>
     </g>
    </g>
    <g id="patch_209">
     <path d="M 52.78125 38.476562 
L 72.78125 38.476562 
L 72.78125 31.476562 
L 52.78125 31.476562 
z
" style="fill: #1f77b4; opacity: 0.5"/>
    </g>
    <g id="text_15">
     <!-- B -->
     <g transform="translate(80.78125 38.476562) scale(0.1 -0.1)">
      <defs>
       <path id="DejaVuSans-42" d="M 1259 2228 
L 1259 519 
L 2272 519 
Q 2781 519 3026 730 
Q 3272 941 3272 1375 
Q 3272 1813 3026 2020 
Q 2781 2228 2272 2228 
L 1259 2228 
z
M 1259 4147 
L 1259 2741 
L 2194 2741 
Q 2656 2741 2882 2914 
Q 3109 3088 3109 3444 
Q 3109 3797 2882 3972 
Q 2656 4147 2194 4147 
L 1259 4147 
z
M 628 4666 
L 2241 4666 
Q 2963 4666 3353 4366 
Q 3744 4066 3744 3513 
Q 3744 3084 3544 2831 
Q 3344 2578 2956 2516 
Q 3422 2416 3680 2098 
Q 3938 1781 3938 1306 
Q 3938 681 3513 340 
Q 3088 0 2303 0 
L 628 0 
L 628 4666 
z
" transform="scale(0.015625)"/>
      </defs>
      <use xlink:href="#DejaVuSans-42"/>
     </g>
    </g>
    <g id="line2d_14">
     <path d="M 52.78125 49.654687 
L 62.78125 49.654687 
L 72.78125 49.654687 
" style="fill: none; stroke-dasharray: 5.55,2.4; stroke-dashoffset: 0; stroke: #d62728; stroke-width: 1.5"/>
    </g>
    <g id="text_16">
     <!-- Mean A -->
     <g transform="translate(80.78125 53.154687) scale(0.1 -0.1)">
      <defs>
       <path id="DejaVuSans-4d" d="M 628 4666 
L 1569 4666 
L 2759 1491 
L 3956 4666 
L 4897 4666 
L 4897 0 
L 4281 0 
L 4281 4097 
L 3078 897 
L 2444 897 
L 1241 4097 
L 1241 0 
L 628 0 
L 628 4666 
z
" transform="scale(0.015625)"/>
       <path id="DejaVuSans-65" d="M 3597 1894 
L 3597 1613 
L 953 1613 
Q 991 1019 1311 708 
Q 1631 397 2203 397 
Q 2534 397 2845 478 
Q 3156 559 3463 722 
L 3463 178 
Q 3153 47 2828 -22 
Q 2503 -91 2169 -91 
Q 1331 -91 842 396 
Q 353 884 353 1716 
Q 353 2575 817 3079 
Q 1281 3584 2069 3584 
Q 2775 3584 3186 3129 
Q 3597 2675 3597 1894 
z
M 3022 2063 
Q 3016 2534 2758 2815 
Q 2500 3097 2075 3097 
Q 1594 3097 1305 2825 
Q 1016 2553 972 2059 
L 3022 2063 
z
" transform="scale(0.015625)"/>
       <path id="DejaVuSans-61" d="M 2194 1759 
Q 1497 1759 1228 1600 
Q 959 1441 959 1056 
Q 959 750 1161 570 
Q 1363 391 1709 391 
Q 2188 391 2477 730 
Q 2766 1069 2766 1631 
L 2766 1759 
L 2194 1759 
z
M 3341 1997 
L 3341 0 
L 2766 0 
L 2766 531 
Q 2569 213 2275 61 
Q 1981 -91 1556 -91 
Q 1019 -91 701 211 
Q 384 513 384 1019 
Q 384 1609 779 1909 
Q 1175 2209 1959 2209 
L 2766 2209 
L 2766 2266 
Q 2766 2663 2505 2880 
Q 2244 3097 1772 3097 
Q 1472 3097 1187 3025 
Q 903 2953 641 2809 
L 641 3341 
Q 956 3463 1253 3523 
Q 1550 3584 1831 3584 
Q 2591 3584 2966 3190 
Q 3341 2797 3341 1997 
z
" transform="scale(0.015625)"/>
       <path id="DejaVuSans-20" transform="scale(0.015625)"/>
      </defs>
      <use xlink:href="#DejaVuSans-4d"/>
      <use xlink:href="#DejaVuSans-65" transform="translate(86.279297 0)"/>
      <use xlink:href="#DejaVuSans-61" transform="translate(147.802734 0)"/>
      <use xlink:href="#DejaVuSans-6e" transform="translate(209.082031 0)"/>
      <use xlink:href="#DejaVuSans-20" transform="translate(272.460938 0)"/>
      <use xlink:href="#DejaVuSans-41" transform="translate(304.248047 0)"/>
     </g>
    </g>
    <g id="line2d_15">
     <path d="M 52.78125 64.332813 
L 62.78125 64.332813 
L 72.78125 64.332813 
" style="fill: none; stroke-dasharray: 5.55,2.4; stroke-dashoffset: 0; stroke: #1f77b4; stroke-width: 1.5"/>
    </g>
    <g id="text_17">
     <!-- Mean B -->
     <g transform="translate(80.78125 67.832813) scale(0.1 -0.1)">
      <use xlink:href="#DejaVuSans-4d"/>
      <use xlink:href="#DejaVuSans-65" transform="translate(86.279297 0)"/>
      <use xlink:href="#DejaVuSans-61" transform="translate(147.802734 0)"/>
      <use xlink:href="#DejaVuSans-6e" transform="translate(209.082031 0)"/>
      <use xlink:href="#DejaVuSans-20" transform="translate(272.460938 0)"/>
      <use xlink:href="#DejaVuSans-42" transform="translate(304.248047 0)"/>
     </g>
    </g>
   </g>
  </g>
 </g>
 <defs>
  <clipPath id="p897e5d5e4b">
   <rect x="43.78125" y="7.2" width="877.39" height="163.24"/>
  </clipPath>
 </defs>
</svg>
