<?xml version="1.0" encoding="UTF-8" standalone="no"?>
<!DOCTYPE svg PUBLIC "-//W3C//DTD SVG 1.1//EN"
 "http://www.w3.org/Graphics/SVG/1.1/DTD/svg11.dtd">
<!-- Generated by graphviz version 12.2.1 (20250203.1708)
 -->
<!-- Pages: 1 -->
<svg width="566pt" height="587pt"
 viewBox="0.00 0.00 566.06 587.50" xmlns="http://www.w3.org/2000/svg" xmlns:xlink="http://www.w3.org/1999/xlink">
<g id="graph0" class="graph" transform="scale(1 1) rotate(0) translate(4 583.5)">
<polygon fill="white" stroke="none" points="-4,4 -4,-583.5 562.06,-583.5 562.06,4 -4,4"/>
<g id="clust1" class="cluster">
<title>clusterpos (2876)</title>
<path fill="none" stroke="black" d="M296,-8C296,-8 402,-8 402,-8 408,-8 414,-14 414,-20 414,-20 414,-559.5 414,-559.5 414,-565.5 408,-571.5 402,-571.5 402,-571.5 296,-571.5 296,-571.5 290,-571.5 284,-565.5 284,-559.5 284,-559.5 284,-20 284,-20 284,-14 290,-8 296,-8"/>
<text text-anchor="middle" x="368.12" y="-15.95" font-family="Times,serif" font-size="14.00">pos (2876)</text>
</g>
<g id="clust2" class="cluster">
<title>cluster2</title>
<path fill="none" stroke="black" d="M20,-229.5C20,-229.5 264,-229.5 264,-229.5 270,-229.5 276,-235.5 276,-241.5 276,-241.5 276,-343.25 276,-343.25 276,-349.25 270,-355.25 264,-355.25 264,-355.25 20,-355.25 20,-355.25 14,-355.25 8,-349.25 8,-343.25 8,-343.25 8,-241.5 8,-241.5 8,-235.5 14,-229.5 20,-229.5"/>
<text text-anchor="middle" x="263.5" y="-237.45" font-family="Times,serif" font-size="14.00">2</text>
</g>
<!-- logit_w -->
<g id="node1" class="node">
<title>logit_w</title>
<polygon fill="none" stroke="black" points="405.75,-443 292.25,-443 292.25,-383.25 405.75,-383.25 405.75,-443"/>
<text text-anchor="middle" x="349" y="-425.7" font-family="Times,serif" font-size="14.00">logit_w</text>
<text text-anchor="middle" x="349" y="-408.45" font-family="Times,serif" font-size="14.00">~</text>
<text text-anchor="middle" x="349" y="-391.2" font-family="Times,serif" font-size="14.00">Deterministic</text>
</g>
<!-- w -->
<g id="node4" class="node">
<title>w</title>
<polygon fill="none" stroke="black" points="405.75,-334.87 292.25,-334.87 292.25,-275.12 405.75,-275.12 405.75,-334.87"/>
<text text-anchor="middle" x="349" y="-317.57" font-family="Times,serif" font-size="14.00">w</text>
<text text-anchor="middle" x="349" y="-300.32" font-family="Times,serif" font-size="14.00">~</text>
<text text-anchor="middle" x="349" y="-283.07" font-family="Times,serif" font-size="14.00">Deterministic</text>
</g>
<!-- logit_w&#45;&gt;w -->
<g id="edge4" class="edge">
<title>logit_w&#45;&gt;w</title>
<path fill="none" stroke="black" d="M349,-382.84C349,-371.59 349,-358.54 349,-346.43"/>
<polygon fill="black" stroke="black" points="352.5,-346.7 349,-336.7 345.5,-346.7 352.5,-346.7"/>
</g>
<!-- e1 -->
<g id="node2" class="node">
<title>e1</title>
<path fill="lightgrey" stroke="black" d="M359,-101C359,-101 329,-101 329,-101 323,-101 317,-95 317,-89 317,-89 317,-53.25 317,-53.25 317,-47.25 323,-41.25 329,-41.25 329,-41.25 359,-41.25 359,-41.25 365,-41.25 371,-47.25 371,-53.25 371,-53.25 371,-89 371,-89 371,-95 365,-101 359,-101"/>
<text text-anchor="middle" x="344" y="-83.7" font-family="Times,serif" font-size="14.00">e1</text>
<text text-anchor="middle" x="344" y="-66.45" font-family="Times,serif" font-size="14.00">~</text>
<text text-anchor="middle" x="344" y="-49.2" font-family="Times,serif" font-size="14.00">Data</text>
</g>
<!-- y_hat -->
<g id="node3" class="node">
<title>y_hat</title>
<ellipse fill="lightgrey" stroke="black" cx="344" cy="-179.25" rx="51.62" ry="42.25"/>
<text text-anchor="middle" x="344" y="-191.82" font-family="Times,serif" font-size="14.00">y_hat</text>
<text text-anchor="middle" x="344" y="-174.57" font-family="Times,serif" font-size="14.00">~</text>
<text text-anchor="middle" x="344" y="-157.32" font-family="Times,serif" font-size="14.00">Mixture</text>
</g>
<!-- y_hat&#45;&gt;e1 -->
<g id="edge1" class="edge">
<title>y_hat&#45;&gt;e1</title>
<path fill="none" stroke="black" d="M344,-136.61C344,-128.74 344,-120.53 344,-112.69"/>
<polygon fill="black" stroke="black" points="347.5,-112.71 344,-102.71 340.5,-112.71 347.5,-112.71"/>
</g>
<!-- w&#45;&gt;y_hat -->
<g id="edge5" class="edge">
<title>w&#45;&gt;y_hat</title>
<path fill="none" stroke="black" d="M347.82,-274.67C347.31,-262.15 346.7,-247.15 346.12,-232.82"/>
<polygon fill="black" stroke="black" points="349.63,-232.9 345.73,-223.05 342.64,-233.19 349.63,-232.9"/>
</g>
<!-- eps -->
<g id="node5" class="node">
<title>eps</title>
<ellipse fill="none" stroke="black" cx="349" cy="-521.25" rx="28.81" ry="42.25"/>
<text text-anchor="middle" x="349" y="-533.82" font-family="Times,serif" font-size="14.00">eps</text>
<text text-anchor="middle" x="349" y="-516.57" font-family="Times,serif" font-size="14.00">~</text>
<text text-anchor="middle" x="349" y="-499.32" font-family="Times,serif" font-size="14.00">T</text>
</g>
<!-- eps&#45;&gt;logit_w -->
<g id="edge3" class="edge">
<title>eps&#45;&gt;logit_w</title>
<path fill="none" stroke="black" d="M349,-478.61C349,-470.74 349,-462.52 349,-454.69"/>
<polygon fill="black" stroke="black" points="352.5,-454.71 349,-444.71 345.5,-454.71 352.5,-454.71"/>
</g>
<!-- mu -->
<g id="node6" class="node">
<title>mu</title>
<ellipse fill="none" stroke="black" cx="65" cy="-305" rx="48.97" ry="42.25"/>
<text text-anchor="middle" x="65" y="-317.57" font-family="Times,serif" font-size="14.00">mu</text>
<text text-anchor="middle" x="65" y="-300.32" font-family="Times,serif" font-size="14.00">~</text>
<text text-anchor="middle" x="65" y="-283.07" font-family="Times,serif" font-size="14.00">Normal</text>
</g>
<!-- mu&#45;&gt;y_hat -->
<g id="edge6" class="edge">
<title>mu&#45;&gt;y_hat</title>
<path fill="none" stroke="black" d="M86.28,-266.81C95.85,-253.16 108.32,-238.79 123,-229.5 170.72,-199.3 234.47,-187.48 281.24,-182.93"/>
<polygon fill="black" stroke="black" points="281.28,-186.44 290.94,-182.08 280.67,-179.47 281.28,-186.44"/>
</g>
<!-- sigma -->
<g id="node7" class="node">
<title>sigma</title>
<ellipse fill="none" stroke="black" cx="200" cy="-305" rx="68.06" ry="42.25"/>
<text text-anchor="middle" x="200" y="-317.57" font-family="Times,serif" font-size="14.00">sigma</text>
<text text-anchor="middle" x="200" y="-300.32" font-family="Times,serif" font-size="14.00">~</text>
<text text-anchor="middle" x="200" y="-283.07" font-family="Times,serif" font-size="14.00">Halfnormal</text>
</g>
<!-- sigma&#45;&gt;y_hat -->
<g id="edge7" class="edge">
<title>sigma&#45;&gt;y_hat</title>
<path fill="none" stroke="black" d="M235.98,-269.14C249.53,-256.38 265.23,-242.01 280,-229.5 285.61,-224.75 291.6,-219.88 297.59,-215.14"/>
<polygon fill="black" stroke="black" points="299.4,-218.17 305.11,-209.25 295.08,-212.66 299.4,-218.17"/>
</g>
<!-- grw_sigma -->
<g id="node8" class="node">
<title>grw_sigma</title>
<ellipse fill="none" stroke="black" cx="490" cy="-521.25" rx="68.06" ry="42.25"/>
<text text-anchor="middle" x="490" y="-533.82" font-family="Times,serif" font-size="14.00">grw_sigma</text>
<text text-anchor="middle" x="490" y="-516.57" font-family="Times,serif" font-size="14.00">~</text>
<text text-anchor="middle" x="490" y="-499.32" font-family="Times,serif" font-size="14.00">Halfnormal</text>
</g>
<!-- grw_sigma&#45;&gt;logit_w -->
<g id="edge2" class="edge">
<title>grw_sigma&#45;&gt;logit_w</title>
<path fill="none" stroke="black" d="M447.31,-488.12C431.31,-476.07 413.03,-462.32 396.61,-449.96"/>
<polygon fill="black" stroke="black" points="399.01,-447.38 388.91,-444.16 394.8,-452.97 399.01,-447.38"/>
</g>
</g>
</svg>
